<svg width="107" height="92" viewBox="0 0 107 92" fill="none" xmlns="http://www.w3.org/2000/svg">
<path d="M53.5073 39.4308C36.9176 39.4308 13.5641 64.627 13.5641 80.5415C13.3802 87.7082 18.9693 92 28.3834 92C38.5835 92 45.3347 86.8457 53.5073 86.8457C61.7634 86.8457 68.5356 92 78.6311 92C87.8487 92 93.6259 87.7123 93.6259 80.5518C93.4504 64.6476 70.1032 39.4308 53.5073 39.4308ZM22.74 36.8434C20.5725 29.7342 13.8568 25.1138 7.7702 26.5513C1.68363 27.9887 -1.4859 34.9131 0.682444 42.0181C2.84995 49.1437 9.56566 53.7641 15.6522 52.3266C21.7388 50.8892 24.8929 43.9484 22.74 36.8434ZM40.4437 32.5721C46.8961 30.9037 50.1358 22.4895 47.6548 13.3987C45.1738 4.30792 37.9355 -1.20158 31.4581 0.283086C25.0057 1.95154 21.766 10.3657 24.247 19.4565C26.7322 28.3625 33.9642 34.256 40.4437 32.5721ZM99.261 26.5554C93.1745 25.3028 86.4587 29.7383 84.2912 36.8475C82.1237 43.9587 85.2841 50.8872 91.3706 52.3246C97.4572 53.5772 104.146 49.1417 106.34 42.0325C108.5 34.9131 105.155 27.9928 99.261 26.5554ZM66.5708 32.5721C72.8622 34.2406 80.2865 28.3625 82.7675 19.4565C85.2485 10.5505 82.0098 1.95052 75.5564 0.283086C69.265 -1.38537 61.8408 4.49273 59.3597 13.3987C56.8724 22.3047 60.1122 30.9088 66.5708 32.5721Z" fill="#FF7878"/>
</svg>
