<svg width="870" height="735" viewBox="0 0 870 735" fill="none" xmlns="http://www.w3.org/2000/svg">
<rect width="870" height="735" fill="white"/>
<path d="M165.003 335.986C158.801 335.986 150.071 349.397 150.071 357.867C150.002 361.681 152.091 363.966 155.611 363.966C159.424 363.966 161.948 361.222 165.003 361.222C168.089 361.222 170.621 363.966 174.395 363.966C177.841 363.966 180 361.683 180 357.872C179.935 349.408 171.207 335.986 165.003 335.986ZM153.501 334.609C152.691 330.826 150.18 328.366 147.905 329.131C145.629 329.897 144.445 333.582 145.255 337.363C146.065 341.156 148.576 343.615 150.851 342.85C153.127 342.085 154.306 338.391 153.501 334.609ZM160.119 332.336C162.531 331.448 163.742 326.97 162.815 322.131C161.887 317.293 159.181 314.36 156.76 315.151C154.348 316.039 153.137 320.517 154.064 325.355C154.993 330.095 157.697 333.232 160.119 332.336ZM182.107 329.134C179.832 328.467 177.321 330.828 176.511 334.611C175.7 338.396 176.882 342.084 179.157 342.849C181.433 343.516 183.933 341.155 184.753 337.371C185.561 333.582 184.31 329.899 182.107 329.134ZM169.886 332.336C172.238 333.224 175.014 330.095 175.941 325.355C176.869 320.615 175.658 316.038 173.245 315.151C170.893 314.263 168.118 317.391 167.191 322.131C166.261 326.871 167.472 331.451 169.886 332.336Z" fill="#FFBCBC"/>
<path d="M474.003 129.986C467.801 129.986 459.071 143.397 459.071 151.867C459.002 155.681 461.091 157.966 464.611 157.966C468.424 157.966 470.948 155.222 474.003 155.222C477.089 155.222 479.621 157.966 483.395 157.966C486.841 157.966 489 155.683 489 151.872C488.935 143.408 480.207 129.986 474.003 129.986ZM462.501 128.609C461.691 124.826 459.18 122.366 456.905 123.131C454.629 123.897 453.445 127.582 454.255 131.363C455.065 135.156 457.576 137.615 459.851 136.85C462.127 136.085 463.306 132.391 462.501 128.609ZM469.119 126.336C471.531 125.448 472.742 120.97 471.815 116.131C470.887 111.293 468.181 108.36 465.76 109.151C463.348 110.039 462.137 114.517 463.064 119.355C463.993 124.095 466.697 127.232 469.119 126.336ZM491.107 123.134C488.832 122.467 486.321 124.828 485.511 128.611C484.7 132.396 485.882 136.084 488.157 136.849C490.433 137.516 492.933 135.155 493.753 131.371C494.561 127.582 493.31 123.899 491.107 123.134ZM478.886 126.336C481.238 127.224 484.014 124.095 484.941 119.355C485.869 114.615 484.658 110.038 482.245 109.151C479.893 108.263 477.118 111.391 476.191 116.131C475.261 120.871 476.472 125.451 478.886 126.336Z" fill="#FFBCBC"/>
<path d="M615.003 384.986C608.801 384.986 600.071 398.397 600.071 406.867C600.002 410.681 602.091 412.966 605.611 412.966C609.424 412.966 611.948 410.222 615.003 410.222C618.089 410.222 620.621 412.966 624.395 412.966C627.841 412.966 630 410.683 630 406.872C629.935 398.408 621.207 384.986 615.003 384.986ZM603.501 383.609C602.691 379.826 600.18 377.366 597.905 378.131C595.629 378.897 594.445 382.582 595.255 386.363C596.065 390.156 598.576 392.615 600.851 391.85C603.127 391.085 604.306 387.391 603.501 383.609ZM610.119 381.336C612.531 380.448 613.742 375.97 612.815 371.131C611.887 366.293 609.181 363.36 606.76 364.151C604.348 365.039 603.137 369.517 604.064 374.355C604.993 379.095 607.697 382.232 610.119 381.336ZM632.107 378.134C629.832 377.467 627.321 379.828 626.511 383.611C625.7 387.396 626.882 391.084 629.157 391.849C631.433 392.516 633.933 390.155 634.753 386.371C635.561 382.582 634.31 378.899 632.107 378.134ZM619.886 381.336C622.238 382.224 625.014 379.095 625.941 374.355C626.869 369.615 625.658 365.038 623.245 364.151C620.893 363.263 618.118 366.391 617.191 371.131C616.261 375.871 617.472 380.451 619.886 381.336Z" fill="#FFBCBC"/>
<path d="M504.003 574.986C497.801 574.986 489.071 588.397 489.071 596.867C489.002 600.681 491.091 602.966 494.611 602.966C498.424 602.966 500.948 600.222 504.003 600.222C507.089 600.222 509.621 602.966 513.395 602.966C516.841 602.966 519 600.683 519 596.872C518.935 588.408 510.207 574.986 504.003 574.986ZM492.501 573.609C491.691 569.826 489.18 567.366 486.905 568.131C484.629 568.897 483.445 572.582 484.255 576.363C485.065 580.156 487.576 582.615 489.851 581.85C492.127 581.085 493.306 577.391 492.501 573.609ZM499.119 571.336C501.531 570.448 502.742 565.97 501.815 561.131C500.887 556.293 498.181 553.36 495.76 554.151C493.348 555.039 492.137 559.517 493.064 564.355C493.993 569.095 496.697 572.232 499.119 571.336ZM521.107 568.134C518.832 567.467 516.321 569.828 515.511 573.611C514.7 577.396 515.882 581.084 518.157 581.849C520.433 582.516 522.933 580.155 523.753 576.371C524.561 572.582 523.31 568.899 521.107 568.134ZM508.886 571.336C511.238 572.224 514.014 569.095 514.941 564.355C515.869 559.615 514.658 555.038 512.245 554.151C509.893 553.263 507.118 556.391 506.191 561.131C505.261 565.871 506.472 570.451 508.886 571.336Z" fill="#FFBCBC"/>
<path d="M389.003 543.986C382.801 543.986 374.071 557.397 374.071 565.867C374.002 569.681 376.091 571.966 379.611 571.966C383.424 571.966 385.948 569.222 389.003 569.222C392.089 569.222 394.621 571.966 398.395 571.966C401.841 571.966 404 569.683 404 565.872C403.935 557.408 395.207 543.986 389.003 543.986ZM377.501 542.609C376.691 538.826 374.18 536.366 371.905 537.131C369.629 537.897 368.445 541.582 369.255 545.363C370.065 549.156 372.576 551.615 374.851 550.85C377.127 550.085 378.306 546.391 377.501 542.609ZM384.119 540.336C386.531 539.448 387.742 534.97 386.815 530.131C385.887 525.293 383.181 522.36 380.76 523.151C378.348 524.039 377.137 528.517 378.064 533.355C378.993 538.095 381.697 541.232 384.119 540.336ZM406.107 537.134C403.832 536.467 401.321 538.828 400.511 542.611C399.7 546.396 400.882 550.084 403.157 550.849C405.433 551.516 407.933 549.155 408.753 545.371C409.561 541.582 408.31 537.899 406.107 537.134ZM393.886 540.336C396.238 541.224 399.014 538.095 399.941 533.355C400.869 528.615 399.658 524.038 397.245 523.151C394.893 522.263 392.118 525.391 391.191 530.131C390.261 534.871 391.472 539.451 393.886 540.336Z" fill="#FFBCBC"/>
<path d="M245.003 599.986C238.801 599.986 230.071 613.397 230.071 621.867C230.002 625.681 232.091 627.966 235.611 627.966C239.424 627.966 241.948 625.222 245.003 625.222C248.089 625.222 250.621 627.966 254.395 627.966C257.841 627.966 260 625.683 260 621.872C259.935 613.408 251.207 599.986 245.003 599.986ZM233.501 598.609C232.691 594.826 230.18 592.366 227.905 593.131C225.629 593.897 224.445 597.582 225.255 601.363C226.065 605.156 228.576 607.615 230.851 606.85C233.127 606.085 234.306 602.391 233.501 598.609ZM240.119 596.336C242.531 595.448 243.742 590.97 242.815 586.131C241.887 581.293 239.181 578.36 236.76 579.151C234.348 580.039 233.137 584.517 234.064 589.355C234.993 594.095 237.697 597.232 240.119 596.336ZM262.107 593.134C259.832 592.467 257.321 594.828 256.511 598.611C255.7 602.396 256.882 606.084 259.157 606.849C261.433 607.516 263.933 605.155 264.753 601.371C265.561 597.582 264.31 593.899 262.107 593.134ZM249.886 596.336C252.238 597.224 255.014 594.095 255.941 589.355C256.869 584.615 255.658 580.038 253.245 579.151C250.893 578.263 248.118 581.391 247.191 586.131C246.261 590.871 247.472 595.451 249.886 596.336Z" fill="#FFBCBC"/>
<path d="M709.003 164.986C702.801 164.986 694.071 178.397 694.071 186.867C694.002 190.681 696.091 192.966 699.611 192.966C703.424 192.966 705.948 190.222 709.003 190.222C712.089 190.222 714.621 192.966 718.395 192.966C721.841 192.966 724 190.683 724 186.872C723.935 178.408 715.207 164.986 709.003 164.986ZM697.501 163.609C696.691 159.826 694.18 157.366 691.905 158.131C689.629 158.897 688.445 162.582 689.255 166.363C690.065 170.156 692.576 172.615 694.851 171.85C697.127 171.085 698.306 167.391 697.501 163.609ZM704.119 161.336C706.531 160.448 707.742 155.97 706.815 151.131C705.887 146.293 703.181 143.36 700.76 144.151C698.348 145.039 697.137 149.517 698.064 154.355C698.993 159.095 701.697 162.232 704.119 161.336ZM726.107 158.134C723.832 157.467 721.321 159.828 720.511 163.611C719.7 167.396 720.882 171.084 723.157 171.849C725.433 172.516 727.933 170.155 728.753 166.371C729.561 162.582 728.31 158.899 726.107 158.134ZM713.886 161.336C716.238 162.224 719.014 159.095 719.941 154.355C720.869 149.615 719.658 145.038 717.245 144.151C714.893 143.263 712.118 146.391 711.191 151.131C710.261 155.871 711.472 160.451 713.886 161.336Z" fill="#FFBCBC"/>
<path d="M326.003 408.986C319.801 408.986 311.071 422.397 311.071 430.867C311.002 434.681 313.091 436.966 316.611 436.966C320.424 436.966 322.948 434.222 326.003 434.222C329.089 434.222 331.621 436.966 335.395 436.966C338.841 436.966 341 434.683 341 430.872C340.935 422.408 332.207 408.986 326.003 408.986ZM314.501 407.609C313.691 403.826 311.18 401.366 308.905 402.131C306.629 402.897 305.445 406.582 306.255 410.363C307.065 414.156 309.576 416.615 311.851 415.85C314.127 415.085 315.306 411.391 314.501 407.609ZM321.119 405.336C323.531 404.448 324.742 399.97 323.815 395.131C322.887 390.293 320.181 387.36 317.76 388.151C315.348 389.039 314.137 393.517 315.064 398.355C315.993 403.095 318.697 406.232 321.119 405.336ZM343.107 402.134C340.832 401.467 338.321 403.828 337.511 407.611C336.7 411.396 337.882 415.084 340.157 415.849C342.433 416.516 344.933 414.155 345.753 410.371C346.561 406.582 345.31 402.899 343.107 402.134ZM330.886 405.336C333.238 406.224 336.014 403.095 336.941 398.355C337.869 393.615 336.658 389.038 334.245 388.151C331.893 387.263 329.118 390.391 328.191 395.131C327.261 399.871 328.472 404.451 330.886 405.336Z" fill="#FFBCBC"/>
<path d="M306.003 104.986C299.801 104.986 291.071 118.397 291.071 126.867C291.002 130.681 293.091 132.966 296.611 132.966C300.424 132.966 302.948 130.222 306.003 130.222C309.089 130.222 311.621 132.966 315.395 132.966C318.841 132.966 321 130.683 321 126.872C320.935 118.408 312.207 104.986 306.003 104.986ZM294.501 103.609C293.691 99.8255 291.18 97.3664 288.905 98.1315C286.629 98.8965 285.445 102.582 286.255 106.363C287.065 110.156 289.576 112.615 291.851 111.85C294.127 111.085 295.306 107.391 294.501 103.609ZM301.119 101.336C303.531 100.448 304.742 95.9697 303.815 91.1312C302.887 86.2928 300.181 83.3605 297.76 84.1507C295.348 85.0387 294.137 89.517 295.064 94.3554C295.993 99.0955 298.697 102.232 301.119 101.336ZM323.107 98.1337C320.832 97.467 318.321 99.8277 317.511 103.611C316.7 107.396 317.882 111.084 320.157 111.849C322.433 112.516 324.933 110.155 325.753 106.371C326.561 102.582 325.31 98.8987 323.107 98.1337ZM310.886 101.336C313.238 102.224 316.014 99.0955 316.941 94.3554C317.869 89.6153 316.658 85.0381 314.245 84.1507C311.893 83.2627 309.118 86.3912 308.191 91.1312C307.261 95.8713 308.472 100.451 310.886 101.336Z" fill="#FFBCBC"/>
<path d="M805.003 494.986C798.801 494.986 790.071 508.397 790.071 516.867C790.002 520.681 792.091 522.966 795.611 522.966C799.424 522.966 801.948 520.222 805.003 520.222C808.089 520.222 810.621 522.966 814.395 522.966C817.841 522.966 820 520.683 820 516.872C819.935 508.408 811.207 494.986 805.003 494.986ZM793.501 493.609C792.691 489.826 790.18 487.366 787.905 488.131C785.629 488.897 784.445 492.582 785.255 496.363C786.065 500.156 788.576 502.615 790.851 501.85C793.127 501.085 794.306 497.391 793.501 493.609ZM800.119 491.336C802.531 490.448 803.742 485.97 802.815 481.131C801.887 476.293 799.181 473.36 796.76 474.151C794.348 475.039 793.137 479.517 794.064 484.355C794.993 489.095 797.697 492.232 800.119 491.336ZM822.107 488.134C819.832 487.467 817.321 489.828 816.511 493.611C815.7 497.396 816.882 501.084 819.157 501.849C821.433 502.516 823.933 500.155 824.753 496.371C825.561 492.582 824.31 488.899 822.107 488.134ZM809.886 491.336C812.238 492.224 815.014 489.095 815.941 484.355C816.869 479.615 815.658 475.038 813.245 474.151C810.893 473.263 808.118 476.391 807.191 481.131C806.261 485.871 807.472 490.451 809.886 491.336Z" fill="#FFBCBC"/>
<path d="M145.003 623.986C138.801 623.986 130.071 637.397 130.071 645.867C130.002 649.681 132.091 651.966 135.611 651.966C139.424 651.966 141.948 649.222 145.003 649.222C148.089 649.222 150.621 651.966 154.395 651.966C157.841 651.966 160 649.683 160 645.872C159.935 637.408 151.207 623.986 145.003 623.986ZM133.501 622.609C132.691 618.826 130.18 616.366 127.905 617.131C125.629 617.897 124.445 621.582 125.255 625.363C126.065 629.156 128.576 631.615 130.851 630.85C133.127 630.085 134.306 626.391 133.501 622.609ZM140.119 620.336C142.531 619.448 143.742 614.97 142.815 610.131C141.887 605.293 139.181 602.36 136.76 603.151C134.348 604.039 133.137 608.517 134.064 613.355C134.993 618.095 137.697 621.232 140.119 620.336ZM162.107 617.134C159.832 616.467 157.321 618.828 156.511 622.611C155.7 626.396 156.882 630.084 159.157 630.849C161.433 631.516 163.933 629.155 164.753 625.371C165.561 621.582 164.31 617.899 162.107 617.134ZM149.886 620.336C152.238 621.224 155.014 618.095 155.941 613.355C156.869 608.615 155.658 604.038 153.245 603.151C150.893 602.263 148.118 605.391 147.191 610.131C146.261 614.871 147.472 619.451 149.886 620.336Z" fill="#FFBCBC"/>
<path d="M59.0027 537.986C52.801 537.986 44.0707 551.397 44.0707 559.867C44.0019 563.681 46.0913 565.966 49.6106 565.966C53.4237 565.966 55.9475 563.222 59.0027 563.222C62.0891 563.222 64.6208 565.966 68.3948 565.966C71.8406 565.966 74.0003 563.683 74.0003 559.872C73.9347 551.408 65.2068 537.986 59.0027 537.986ZM47.5009 536.609C46.6906 532.826 44.1801 530.366 41.9047 531.131C39.6294 531.897 38.4445 535.582 39.2551 539.363C40.0654 543.156 42.5759 545.615 44.8513 544.85C47.1267 544.085 48.3057 540.391 47.5009 536.609ZM54.1191 534.336C56.5312 533.448 57.7424 528.97 56.8149 524.131C55.8874 519.293 53.1815 516.36 50.76 517.151C48.3479 518.039 47.1368 522.517 48.0643 527.355C48.9933 532.095 51.6969 535.232 54.1191 534.336ZM76.1069 531.134C73.8316 530.467 71.321 532.828 70.5107 536.611C69.7005 540.396 70.8819 544.084 73.1572 544.849C75.4326 545.516 77.933 543.155 78.7534 539.371C79.5606 535.582 78.3104 531.899 76.1069 531.134ZM63.8863 534.336C66.2382 535.224 69.0136 532.095 69.9411 527.355C70.8686 522.615 69.6579 518.038 67.2454 517.151C64.8935 516.263 62.118 519.391 61.1905 524.131C60.2607 528.871 61.4718 533.451 63.8863 534.336Z" fill="#FFBCBC"/>
<path d="M125.003 153.986C118.801 153.986 110.071 167.397 110.071 175.867C110.002 179.681 112.091 181.966 115.611 181.966C119.424 181.966 121.948 179.222 125.003 179.222C128.089 179.222 130.621 181.966 134.395 181.966C137.841 181.966 140 179.683 140 175.872C139.935 167.408 131.207 153.986 125.003 153.986ZM113.501 152.609C112.691 148.826 110.18 146.366 107.905 147.131C105.629 147.897 104.445 151.582 105.255 155.363C106.065 159.156 108.576 161.615 110.851 160.85C113.127 160.085 114.306 156.391 113.501 152.609ZM120.119 150.336C122.531 149.448 123.742 144.97 122.815 140.131C121.887 135.293 119.181 132.36 116.76 133.151C114.348 134.039 113.137 138.517 114.064 143.355C114.993 148.095 117.697 151.232 120.119 150.336ZM142.107 147.134C139.832 146.467 137.321 148.828 136.511 152.611C135.7 156.396 136.882 160.084 139.157 160.849C141.433 161.516 143.933 159.155 144.753 155.371C145.561 151.582 144.31 147.899 142.107 147.134ZM129.886 150.336C132.238 151.224 135.014 148.095 135.941 143.355C136.869 138.615 135.658 134.038 133.245 133.151C130.893 132.263 128.118 135.391 127.191 140.131C126.261 144.871 127.472 149.451 129.886 150.336Z" fill="#FFBCBC"/>
<path d="M464.003 271.986C457.801 271.986 449.071 285.397 449.071 293.867C449.002 297.681 451.091 299.966 454.611 299.966C458.424 299.966 460.948 297.222 464.003 297.222C467.089 297.222 469.621 299.966 473.395 299.966C476.841 299.966 479 297.683 479 293.872C478.935 285.408 470.207 271.986 464.003 271.986ZM452.501 270.609C451.691 266.826 449.18 264.366 446.905 265.131C444.629 265.897 443.445 269.582 444.255 273.363C445.065 277.156 447.576 279.615 449.851 278.85C452.127 278.085 453.306 274.391 452.501 270.609ZM459.119 268.336C461.531 267.448 462.742 262.97 461.815 258.131C460.887 253.293 458.181 250.36 455.76 251.151C453.348 252.039 452.137 256.517 453.064 261.355C453.993 266.095 456.697 269.232 459.119 268.336ZM481.107 265.134C478.832 264.467 476.321 266.828 475.511 270.611C474.7 274.396 475.882 278.084 478.157 278.849C480.433 279.516 482.933 277.155 483.753 273.371C484.561 269.582 483.31 265.899 481.107 265.134ZM468.886 268.336C471.238 269.224 474.014 266.095 474.941 261.355C475.869 256.615 474.658 252.038 472.245 251.151C469.893 250.263 467.118 253.391 466.191 258.131C465.261 262.871 466.472 267.451 468.886 268.336Z" fill="#FFBCBC"/>
<path d="M765.003 68.9864C758.801 68.9864 750.071 82.3967 750.071 90.8669C750.002 94.6813 752.091 96.9655 755.611 96.9655C759.424 96.9655 761.948 94.2223 765.003 94.2223C768.089 94.2223 770.621 96.9655 774.395 96.9655C777.841 96.9655 780 94.6835 780 90.8724C779.935 82.4076 771.207 68.9864 765.003 68.9864ZM753.501 67.6093C752.691 63.8255 750.18 61.3664 747.905 62.1315C745.629 62.8965 744.445 66.5819 745.255 70.3635C746.065 74.156 748.576 76.6151 750.851 75.85C753.127 75.085 754.306 71.3908 753.501 67.6093ZM760.119 65.336C762.531 64.448 763.742 59.9697 762.815 55.1312C761.887 50.2928 759.181 47.3605 756.76 48.1507C754.348 49.0387 753.137 53.517 754.064 58.3554C754.993 63.0955 757.697 66.2322 760.119 65.336ZM782.107 62.1337C779.832 61.467 777.321 63.8277 776.511 67.6115C775.7 71.3963 776.882 75.0839 779.157 75.8489C781.433 76.5156 783.933 74.1549 784.753 70.3711C785.561 66.5819 784.31 62.8987 782.107 62.1337ZM769.886 65.336C772.238 66.224 775.014 63.0955 775.941 58.3554C776.869 53.6153 775.658 49.0381 773.245 48.1507C770.893 47.2627 768.118 50.3912 767.191 55.1312C766.261 59.8713 767.472 64.4507 769.886 65.336Z" fill="#FFBCBC"/>
<path d="M635.003 623.986C628.801 623.986 620.071 637.397 620.071 645.867C620.002 649.681 622.091 651.966 625.611 651.966C629.424 651.966 631.948 649.222 635.003 649.222C638.089 649.222 640.621 651.966 644.395 651.966C647.841 651.966 650 649.683 650 645.872C649.935 637.408 641.207 623.986 635.003 623.986ZM623.501 622.609C622.691 618.826 620.18 616.366 617.905 617.131C615.629 617.897 614.445 621.582 615.255 625.363C616.065 629.156 618.576 631.615 620.851 630.85C623.127 630.085 624.306 626.391 623.501 622.609ZM630.119 620.336C632.531 619.448 633.742 614.97 632.815 610.131C631.887 605.293 629.181 602.36 626.76 603.151C624.348 604.039 623.137 608.517 624.064 613.355C624.993 618.095 627.697 621.232 630.119 620.336ZM652.107 617.134C649.832 616.467 647.321 618.828 646.511 622.611C645.7 626.396 646.882 630.084 649.157 630.849C651.433 631.516 653.933 629.155 654.753 625.371C655.561 621.582 654.31 617.899 652.107 617.134ZM639.886 620.336C642.238 621.224 645.014 618.095 645.941 613.355C646.869 608.615 645.658 604.038 643.245 603.151C640.893 602.263 638.118 605.391 637.191 610.131C636.261 614.871 637.472 619.451 639.886 620.336Z" fill="#FFBCBC"/>
<path d="M105.003 457.986C98.801 457.986 90.0707 471.397 90.0707 479.867C90.0019 483.681 92.0913 485.966 95.6106 485.966C99.4237 485.966 101.948 483.222 105.003 483.222C108.089 483.222 110.621 485.966 114.395 485.966C117.841 485.966 120 483.683 120 479.872C119.935 471.408 111.207 457.986 105.003 457.986ZM93.5009 456.609C92.6906 452.826 90.1801 450.366 87.9047 451.131C85.6294 451.897 84.4445 455.582 85.2551 459.363C86.0654 463.156 88.5759 465.615 90.8513 464.85C93.1267 464.085 94.3057 460.391 93.5009 456.609ZM100.119 454.336C102.531 453.448 103.742 448.97 102.815 444.131C101.887 439.293 99.1815 436.36 96.76 437.151C94.3479 438.039 93.1368 442.517 94.0643 447.355C94.9933 452.095 97.6969 455.232 100.119 454.336ZM122.107 451.134C119.832 450.467 117.321 452.828 116.511 456.611C115.7 460.396 116.882 464.084 119.157 464.849C121.433 465.516 123.933 463.155 124.753 459.371C125.561 455.582 124.31 451.899 122.107 451.134ZM109.886 454.336C112.238 455.224 115.014 452.095 115.941 447.355C116.869 442.615 115.658 438.038 113.245 437.151C110.893 436.263 108.118 439.391 107.191 444.131C106.261 448.871 107.472 453.451 109.886 454.336Z" fill="#FFBCBC"/>
<path d="M306.003 222.986C299.801 222.986 291.071 236.397 291.071 244.867C291.002 248.681 293.091 250.966 296.611 250.966C300.424 250.966 302.948 248.222 306.003 248.222C309.089 248.222 311.621 250.966 315.395 250.966C318.841 250.966 321 248.683 321 244.872C320.935 236.408 312.207 222.986 306.003 222.986ZM294.501 221.609C293.691 217.826 291.18 215.366 288.905 216.131C286.629 216.897 285.445 220.582 286.255 224.363C287.065 228.156 289.576 230.615 291.851 229.85C294.127 229.085 295.306 225.391 294.501 221.609ZM301.119 219.336C303.531 218.448 304.742 213.97 303.815 209.131C302.887 204.293 300.181 201.36 297.76 202.151C295.348 203.039 294.137 207.517 295.064 212.355C295.993 217.095 298.697 220.232 301.119 219.336ZM323.107 216.134C320.832 215.467 318.321 217.828 317.511 221.611C316.7 225.396 317.882 229.084 320.157 229.849C322.433 230.516 324.933 228.155 325.753 224.371C326.561 220.582 325.31 216.899 323.107 216.134ZM310.886 219.336C313.238 220.224 316.014 217.095 316.941 212.355C317.869 207.615 316.658 203.038 314.245 202.151C311.893 201.263 309.118 204.391 308.191 209.131C307.261 213.871 308.472 218.451 310.886 219.336Z" fill="#FFBCBC"/>
<g clip-path="url(#clip0_218_57)">
<path d="M208.104 203.378C208.236 202.583 208.924 202 209.729 202C210.25 202 210.736 202.244 211.049 202.66L212.222 204.222H215.84C216.722 204.222 217.576 204.574 218.201 205.199L219.444 206.444H223.333C224.257 206.444 225 207.191 225 208.111V209.778C225 212.847 222.514 215.333 219.444 215.333H214.632L214.278 217.451L206.5 213.007L208.104 203.378ZM216.111 206.444C215.5 206.444 215 206.942 215 207.556C215 208.169 215.5 208.667 216.111 208.667C216.722 208.667 217.222 208.169 217.222 207.556C217.222 206.942 216.722 206.444 216.111 206.444ZM213.889 219.785V235.333C213.889 236.563 212.896 237.556 211.667 237.556H209.444C208.215 237.556 207.222 236.563 207.222 235.333V227.333C205.493 228.188 203.667 228.667 201.667 228.667C199.667 228.667 197.778 228.188 196.111 227.333V235.333C196.111 236.563 195.118 237.556 193.889 237.556H191.667C190.44 237.556 189.444 236.563 189.444 235.333V219.347C187.447 218.59 185.878 216.896 185.336 214.729L185.066 213.653C184.769 212.458 185.493 211.25 186.683 210.896C187.874 210.66 189.081 211.382 189.378 212.569L189.648 213.653C189.895 214.639 190.784 215.271 191.803 215.271H206.097L213.889 219.785Z" fill="#FFBCBC"/>
</g>
<g clip-path="url(#clip1_218_57)">
<path d="M598.104 203.378C598.236 202.583 598.924 202 599.729 202C600.25 202 600.736 202.244 601.049 202.66L602.222 204.222H605.84C606.722 204.222 607.576 204.574 608.201 205.199L609.444 206.444H613.333C614.257 206.444 615 207.191 615 208.111V209.778C615 212.847 612.514 215.333 609.444 215.333H604.632L604.278 217.451L596.5 213.007L598.104 203.378ZM606.111 206.444C605.5 206.444 605 206.942 605 207.556C605 208.169 605.5 208.667 606.111 208.667C606.722 208.667 607.222 208.169 607.222 207.556C607.222 206.942 606.722 206.444 606.111 206.444ZM603.889 219.785V235.333C603.889 236.563 602.896 237.556 601.667 237.556H599.444C598.215 237.556 597.222 236.563 597.222 235.333V227.333C595.493 228.188 593.667 228.667 591.667 228.667C589.667 228.667 587.778 228.188 586.111 227.333V235.333C586.111 236.563 585.118 237.556 583.889 237.556H581.667C580.44 237.556 579.444 236.563 579.444 235.333V219.347C577.447 218.59 575.878 216.896 575.336 214.729L575.066 213.653C574.769 212.458 575.493 211.25 576.683 210.896C577.874 210.66 579.081 211.382 579.378 212.569L579.648 213.653C579.895 214.639 580.784 215.271 581.803 215.271H596.097L603.889 219.785Z" fill="#FFBCBC"/>
</g>
<g clip-path="url(#clip2_218_57)">
<path d="M808.104 140.378C808.236 139.583 808.924 139 809.729 139C810.25 139 810.736 139.244 811.049 139.66L812.222 141.222H815.84C816.722 141.222 817.576 141.574 818.201 142.199L819.444 143.444H823.333C824.257 143.444 825 144.191 825 145.111V146.778C825 149.847 822.514 152.333 819.444 152.333H814.632L814.278 154.451L806.5 150.007L808.104 140.378ZM816.111 143.444C815.5 143.444 815 143.942 815 144.556C815 145.169 815.5 145.667 816.111 145.667C816.722 145.667 817.222 145.169 817.222 144.556C817.222 143.942 816.722 143.444 816.111 143.444ZM813.889 156.785V172.333C813.889 173.563 812.896 174.556 811.667 174.556H809.444C808.215 174.556 807.222 173.563 807.222 172.333V164.333C805.493 165.188 803.667 165.667 801.667 165.667C799.667 165.667 797.778 165.188 796.111 164.333V172.333C796.111 173.563 795.118 174.556 793.889 174.556H791.667C790.44 174.556 789.444 173.563 789.444 172.333V156.347C787.447 155.59 785.878 153.896 785.336 151.729L785.066 150.653C784.769 149.458 785.493 148.25 786.683 147.896C787.874 147.66 789.081 148.382 789.378 149.569L789.648 150.653C789.895 151.639 790.784 152.271 791.803 152.271H806.097L813.889 156.785Z" fill="#FFBCBC"/>
</g>
<g clip-path="url(#clip3_218_57)">
<path d="M768.104 365.378C768.236 364.583 768.924 364 769.729 364C770.25 364 770.736 364.244 771.049 364.66L772.222 366.222H775.84C776.722 366.222 777.576 366.574 778.201 367.199L779.444 368.444H783.333C784.257 368.444 785 369.191 785 370.111V371.778C785 374.847 782.514 377.333 779.444 377.333H774.632L774.278 379.451L766.5 375.007L768.104 365.378ZM776.111 368.444C775.5 368.444 775 368.942 775 369.556C775 370.169 775.5 370.667 776.111 370.667C776.722 370.667 777.222 370.169 777.222 369.556C777.222 368.942 776.722 368.444 776.111 368.444ZM773.889 381.785V397.333C773.889 398.563 772.896 399.556 771.667 399.556H769.444C768.215 399.556 767.222 398.563 767.222 397.333V389.333C765.493 390.188 763.667 390.667 761.667 390.667C759.667 390.667 757.778 390.188 756.111 389.333V397.333C756.111 398.563 755.118 399.556 753.889 399.556H751.667C750.44 399.556 749.444 398.563 749.444 397.333V381.347C747.447 380.59 745.878 378.896 745.336 376.729L745.066 375.653C744.769 374.458 745.493 373.25 746.683 372.896C747.874 372.66 749.081 373.382 749.378 374.569L749.648 375.653C749.895 376.639 750.784 377.271 751.803 377.271H766.097L773.889 381.785Z" fill="#FFBCBC"/>
</g>
<g clip-path="url(#clip4_218_57)">
<path d="M598.104 41.3785C598.236 40.583 598.924 40 599.729 40C600.25 40 600.736 40.2444 601.049 40.6599L602.222 42.2222H605.84C606.722 42.2222 607.576 42.5736 608.201 43.1986L609.444 44.4444H613.333C614.257 44.4444 615 45.191 615 46.1111V47.7778C615 50.8472 612.514 53.3333 609.444 53.3333H604.632L604.278 55.4514L596.5 51.0069L598.104 41.3785ZM606.111 44.4444C605.5 44.4444 605 44.9417 605 45.5556C605 46.1694 605.5 46.6667 606.111 46.6667C606.722 46.6667 607.222 46.1694 607.222 45.5556C607.222 44.9417 606.722 44.4444 606.111 44.4444ZM603.889 57.7847V73.3333C603.889 74.5625 602.896 75.5556 601.667 75.5556H599.444C598.215 75.5556 597.222 74.5625 597.222 73.3333V65.3333C595.493 66.1875 593.667 66.6667 591.667 66.6667C589.667 66.6667 587.778 66.1875 586.111 65.3333V73.3333C586.111 74.5625 585.118 75.5556 583.889 75.5556H581.667C580.44 75.5556 579.444 74.5625 579.444 73.3333V57.3472C577.447 56.5903 575.878 54.8958 575.336 52.7292L575.066 51.6528C574.769 50.4583 575.493 49.25 576.683 48.8958C577.874 48.6597 579.081 49.3819 579.378 50.5694L579.648 51.6528C579.895 52.6389 580.784 53.2708 581.803 53.2708H596.097L603.889 57.7847Z" fill="#FFBCBC"/>
</g>
<g clip-path="url(#clip5_218_57)">
<path d="M507.104 420.378C507.236 419.583 507.924 419 508.729 419C509.25 419 509.736 419.244 510.049 419.66L511.222 421.222H514.84C515.722 421.222 516.576 421.574 517.201 422.199L518.444 423.444H522.333C523.257 423.444 524 424.191 524 425.111V426.778C524 429.847 521.514 432.333 518.444 432.333H513.632L513.278 434.451L505.5 430.007L507.104 420.378ZM515.111 423.444C514.5 423.444 514 423.942 514 424.556C514 425.169 514.5 425.667 515.111 425.667C515.722 425.667 516.222 425.169 516.222 424.556C516.222 423.942 515.722 423.444 515.111 423.444ZM512.889 436.785V452.333C512.889 453.563 511.896 454.556 510.667 454.556H508.444C507.215 454.556 506.222 453.563 506.222 452.333V444.333C504.493 445.188 502.667 445.667 500.667 445.667C498.667 445.667 496.778 445.188 495.111 444.333V452.333C495.111 453.563 494.118 454.556 492.889 454.556H490.667C489.44 454.556 488.444 453.563 488.444 452.333V436.347C486.447 435.59 484.878 433.896 484.336 431.729L484.066 430.653C483.769 429.458 484.493 428.25 485.683 427.896C486.874 427.66 488.081 428.382 488.378 429.569L488.648 430.653C488.895 431.639 489.784 432.271 490.803 432.271H505.097L512.889 436.785Z" fill="#FFBCBC"/>
</g>
<g clip-path="url(#clip6_218_57)">
<path d="M778.104 643.378C778.236 642.583 778.924 642 779.729 642C780.25 642 780.736 642.244 781.049 642.66L782.222 644.222H785.84C786.722 644.222 787.576 644.574 788.201 645.199L789.444 646.444H793.333C794.257 646.444 795 647.191 795 648.111V649.778C795 652.847 792.514 655.333 789.444 655.333H784.632L784.278 657.451L776.5 653.007L778.104 643.378ZM786.111 646.444C785.5 646.444 785 646.942 785 647.556C785 648.169 785.5 648.667 786.111 648.667C786.722 648.667 787.222 648.169 787.222 647.556C787.222 646.942 786.722 646.444 786.111 646.444ZM783.889 659.785V675.333C783.889 676.563 782.896 677.556 781.667 677.556H779.444C778.215 677.556 777.222 676.563 777.222 675.333V667.333C775.493 668.188 773.667 668.667 771.667 668.667C769.667 668.667 767.778 668.188 766.111 667.333V675.333C766.111 676.563 765.118 677.556 763.889 677.556H761.667C760.44 677.556 759.444 676.563 759.444 675.333V659.347C757.447 658.59 755.878 656.896 755.336 654.729L755.066 653.653C754.769 652.458 755.493 651.25 756.683 650.896C757.874 650.66 759.081 651.382 759.378 652.569L759.648 653.653C759.895 654.639 760.784 655.271 761.803 655.271H776.097L783.889 659.785Z" fill="#FFBCBC"/>
</g>
<g clip-path="url(#clip7_218_57)">
<path d="M393.104 643.378C393.236 642.583 393.924 642 394.729 642C395.25 642 395.736 642.244 396.049 642.66L397.222 644.222H400.84C401.722 644.222 402.576 644.574 403.201 645.199L404.444 646.444H408.333C409.257 646.444 410 647.191 410 648.111V649.778C410 652.847 407.514 655.333 404.444 655.333H399.632L399.278 657.451L391.5 653.007L393.104 643.378ZM401.111 646.444C400.5 646.444 400 646.942 400 647.556C400 648.169 400.5 648.667 401.111 648.667C401.722 648.667 402.222 648.169 402.222 647.556C402.222 646.942 401.722 646.444 401.111 646.444ZM398.889 659.785V675.333C398.889 676.563 397.896 677.556 396.667 677.556H394.444C393.215 677.556 392.222 676.563 392.222 675.333V667.333C390.493 668.188 388.667 668.667 386.667 668.667C384.667 668.667 382.778 668.188 381.111 667.333V675.333C381.111 676.563 380.118 677.556 378.889 677.556H376.667C375.44 677.556 374.444 676.563 374.444 675.333V659.347C372.447 658.59 370.878 656.896 370.336 654.729L370.066 653.653C369.769 652.458 370.493 651.25 371.683 650.896C372.874 650.66 374.081 651.382 374.378 652.569L374.648 653.653C374.895 654.639 375.784 655.271 376.803 655.271H391.097L398.889 659.785Z" fill="#FFBCBC"/>
</g>
<g clip-path="url(#clip8_218_57)">
<path d="M228.104 679.378C228.236 678.583 228.924 678 229.729 678C230.25 678 230.736 678.244 231.049 678.66L232.222 680.222H235.84C236.722 680.222 237.576 680.574 238.201 681.199L239.444 682.444H243.333C244.257 682.444 245 683.191 245 684.111V685.778C245 688.847 242.514 691.333 239.444 691.333H234.632L234.278 693.451L226.5 689.007L228.104 679.378ZM236.111 682.444C235.5 682.444 235 682.942 235 683.556C235 684.169 235.5 684.667 236.111 684.667C236.722 684.667 237.222 684.169 237.222 683.556C237.222 682.942 236.722 682.444 236.111 682.444ZM233.889 695.785V711.333C233.889 712.563 232.896 713.556 231.667 713.556H229.444C228.215 713.556 227.222 712.563 227.222 711.333V703.333C225.493 704.188 223.667 704.667 221.667 704.667C219.667 704.667 217.778 704.188 216.111 703.333V711.333C216.111 712.563 215.118 713.556 213.889 713.556H211.667C210.44 713.556 209.444 712.563 209.444 711.333V695.347C207.447 694.59 205.878 692.896 205.336 690.729L205.066 689.653C204.769 688.458 205.493 687.25 206.683 686.896C207.874 686.66 209.081 687.382 209.378 688.569L209.648 689.653C209.895 690.639 210.784 691.271 211.803 691.271H226.097L233.889 695.785Z" fill="#FFBCBC"/>
</g>
<g clip-path="url(#clip9_218_57)">
<path d="M678.104 679.378C678.236 678.583 678.924 678 679.729 678C680.25 678 680.736 678.244 681.049 678.66L682.222 680.222H685.84C686.722 680.222 687.576 680.574 688.201 681.199L689.444 682.444H693.333C694.257 682.444 695 683.191 695 684.111V685.778C695 688.847 692.514 691.333 689.444 691.333H684.632L684.278 693.451L676.5 689.007L678.104 679.378ZM686.111 682.444C685.5 682.444 685 682.942 685 683.556C685 684.169 685.5 684.667 686.111 684.667C686.722 684.667 687.222 684.169 687.222 683.556C687.222 682.942 686.722 682.444 686.111 682.444ZM683.889 695.785V711.333C683.889 712.563 682.896 713.556 681.667 713.556H679.444C678.215 713.556 677.222 712.563 677.222 711.333V703.333C675.493 704.188 673.667 704.667 671.667 704.667C669.667 704.667 667.778 704.188 666.111 703.333V711.333C666.111 712.563 665.118 713.556 663.889 713.556H661.667C660.44 713.556 659.444 712.563 659.444 711.333V695.347C657.447 694.59 655.878 692.896 655.336 690.729L655.066 689.653C654.769 688.458 655.493 687.25 656.683 686.896C657.874 686.66 659.081 687.382 659.378 688.569L659.648 689.653C659.895 690.639 660.784 691.271 661.803 691.271H676.097L683.889 695.785Z" fill="#FFBCBC"/>
</g>
<g clip-path="url(#clip10_218_57)">
<path d="M678.104 265.378C678.236 264.583 678.924 264 679.729 264C680.25 264 680.736 264.244 681.049 264.66L682.222 266.222H685.84C686.722 266.222 687.576 266.574 688.201 267.199L689.444 268.444H693.333C694.257 268.444 695 269.191 695 270.111V271.778C695 274.847 692.514 277.333 689.444 277.333H684.632L684.278 279.451L676.5 275.007L678.104 265.378ZM686.111 268.444C685.5 268.444 685 268.942 685 269.556C685 270.169 685.5 270.667 686.111 270.667C686.722 270.667 687.222 270.169 687.222 269.556C687.222 268.942 686.722 268.444 686.111 268.444ZM683.889 281.785V297.333C683.889 298.563 682.896 299.556 681.667 299.556H679.444C678.215 299.556 677.222 298.563 677.222 297.333V289.333C675.493 290.188 673.667 290.667 671.667 290.667C669.667 290.667 667.778 290.188 666.111 289.333V297.333C666.111 298.563 665.118 299.556 663.889 299.556H661.667C660.44 299.556 659.444 298.563 659.444 297.333V281.347C657.447 280.59 655.878 278.896 655.336 276.729L655.066 275.653C654.769 274.458 655.493 273.25 656.683 272.896C657.874 272.66 659.081 273.382 659.378 274.569L659.648 275.653C659.895 276.639 660.784 277.271 661.803 277.271H676.097L683.889 281.785Z" fill="#FFBCBC"/>
</g>
<g clip-path="url(#clip11_218_57)">
<path d="M672.104 80.3785C672.236 79.583 672.924 79 673.729 79C674.25 79 674.736 79.2444 675.049 79.6599L676.222 81.2222H679.84C680.722 81.2222 681.576 81.5736 682.201 82.1986L683.444 83.4444H687.333C688.257 83.4444 689 84.191 689 85.1111V86.7778C689 89.8472 686.514 92.3333 683.444 92.3333H678.632L678.278 94.4514L670.5 90.0069L672.104 80.3785ZM680.111 83.4444C679.5 83.4444 679 83.9417 679 84.5556C679 85.1694 679.5 85.6667 680.111 85.6667C680.722 85.6667 681.222 85.1694 681.222 84.5556C681.222 83.9417 680.722 83.4444 680.111 83.4444ZM677.889 96.7847V112.333C677.889 113.563 676.896 114.556 675.667 114.556H673.444C672.215 114.556 671.222 113.563 671.222 112.333V104.333C669.493 105.188 667.667 105.667 665.667 105.667C663.667 105.667 661.778 105.188 660.111 104.333V112.333C660.111 113.563 659.118 114.556 657.889 114.556H655.667C654.44 114.556 653.444 113.563 653.444 112.333V96.3472C651.447 95.5903 649.878 93.8958 649.336 91.7292L649.066 90.6528C648.769 89.4583 649.493 88.25 650.683 87.8958C651.874 87.6597 653.081 88.3819 653.378 89.5694L653.648 90.6528C653.895 91.6389 654.784 92.2708 655.803 92.2708H670.097L677.889 96.7847Z" fill="#FFBCBC"/>
</g>
<g clip-path="url(#clip12_218_57)">
<path d="M228.104 475.378C228.236 474.583 228.924 474 229.729 474C230.25 474 230.736 474.244 231.049 474.66L232.222 476.222H235.84C236.722 476.222 237.576 476.574 238.201 477.199L239.444 478.444H243.333C244.257 478.444 245 479.191 245 480.111V481.778C245 484.847 242.514 487.333 239.444 487.333H234.632L234.278 489.451L226.5 485.007L228.104 475.378ZM236.111 478.444C235.5 478.444 235 478.942 235 479.556C235 480.169 235.5 480.667 236.111 480.667C236.722 480.667 237.222 480.169 237.222 479.556C237.222 478.942 236.722 478.444 236.111 478.444ZM233.889 491.785V507.333C233.889 508.563 232.896 509.556 231.667 509.556H229.444C228.215 509.556 227.222 508.563 227.222 507.333V499.333C225.493 500.188 223.667 500.667 221.667 500.667C219.667 500.667 217.778 500.188 216.111 499.333V507.333C216.111 508.563 215.118 509.556 213.889 509.556H211.667C210.44 509.556 209.444 508.563 209.444 507.333V491.347C207.447 490.59 205.878 488.896 205.336 486.729L205.066 485.653C204.769 484.458 205.493 483.25 206.683 482.896C207.874 482.66 209.081 483.382 209.378 484.569L209.648 485.653C209.895 486.639 210.784 487.271 211.803 487.271H226.097L233.889 491.785Z" fill="#FFBCBC"/>
</g>
<g clip-path="url(#clip13_218_57)">
<path d="M82.1042 227.378C82.2361 226.583 82.9236 226 83.7292 226C84.25 226 84.7361 226.244 85.0486 226.66L86.2222 228.222H89.8403C90.7222 228.222 91.5764 228.574 92.2014 229.199L93.4444 230.444H97.3333C98.2569 230.444 99 231.191 99 232.111V233.778C99 236.847 96.5139 239.333 93.4444 239.333H88.6319L88.2778 241.451L80.5 237.007L82.1042 227.378ZM90.1111 230.444C89.5 230.444 89 230.942 89 231.556C89 232.169 89.5 232.667 90.1111 232.667C90.7222 232.667 91.2222 232.169 91.2222 231.556C91.2222 230.942 90.7222 230.444 90.1111 230.444ZM87.8889 243.785V259.333C87.8889 260.563 86.8958 261.556 85.6666 261.556H83.4444C82.2153 261.556 81.2222 260.563 81.2222 259.333V251.333C79.493 252.188 77.6667 252.667 75.6667 252.667C73.6667 252.667 71.7778 252.188 70.1111 251.333V259.333C70.1111 260.563 69.118 261.556 67.8889 261.556H65.6667C64.4396 261.556 63.4444 260.563 63.4444 259.333V243.347C61.4465 242.59 59.8778 240.896 59.3358 238.729L59.0664 237.653C58.7687 236.458 59.4926 235.25 60.6833 234.896C61.8736 234.66 63.0805 235.382 63.3785 236.569L63.6479 237.653C63.8951 238.639 64.784 239.271 65.8035 239.271H80.0972L87.8889 243.785Z" fill="#FFBCBC"/>
</g>
<g clip-path="url(#clip14_218_57)">
<path d="M228.104 30.3785C228.236 29.583 228.924 29 229.729 29C230.25 29 230.736 29.2444 231.049 29.6599L232.222 31.2222H235.84C236.722 31.2222 237.576 31.5736 238.201 32.1986L239.444 33.4444H243.333C244.257 33.4444 245 34.191 245 35.1111V36.7778C245 39.8472 242.514 42.3333 239.444 42.3333H234.632L234.278 44.4514L226.5 40.0069L228.104 30.3785ZM236.111 33.4444C235.5 33.4444 235 33.9417 235 34.5556C235 35.1694 235.5 35.6667 236.111 35.6667C236.722 35.6667 237.222 35.1694 237.222 34.5556C237.222 33.9417 236.722 33.4444 236.111 33.4444ZM233.889 46.7847V62.3333C233.889 63.5625 232.896 64.5556 231.667 64.5556H229.444C228.215 64.5556 227.222 63.5625 227.222 62.3333V54.3333C225.493 55.1875 223.667 55.6667 221.667 55.6667C219.667 55.6667 217.778 55.1875 216.111 54.3333V62.3333C216.111 63.5625 215.118 64.5556 213.889 64.5556H211.667C210.44 64.5556 209.444 63.5625 209.444 62.3333V46.3472C207.447 45.5903 205.878 43.8958 205.336 41.7292L205.066 40.6528C204.769 39.4583 205.493 38.25 206.683 37.8958C207.874 37.6597 209.081 38.3819 209.378 39.5694L209.648 40.6528C209.895 41.6389 210.784 42.2708 211.803 42.2708H226.097L233.889 46.7847Z" fill="#FFBCBC"/>
</g>
<g clip-path="url(#clip15_218_57)">
<path d="M427.104 37.3785C427.236 36.583 427.924 36 428.729 36C429.25 36 429.736 36.2444 430.049 36.6599L431.222 38.2222H434.84C435.722 38.2222 436.576 38.5736 437.201 39.1986L438.444 40.4444H442.333C443.257 40.4444 444 41.191 444 42.1111V43.7778C444 46.8472 441.514 49.3333 438.444 49.3333H433.632L433.278 51.4514L425.5 47.0069L427.104 37.3785ZM435.111 40.4444C434.5 40.4444 434 40.9417 434 41.5556C434 42.1694 434.5 42.6667 435.111 42.6667C435.722 42.6667 436.222 42.1694 436.222 41.5556C436.222 40.9417 435.722 40.4444 435.111 40.4444ZM432.889 53.7847V69.3333C432.889 70.5625 431.896 71.5556 430.667 71.5556H428.444C427.215 71.5556 426.222 70.5625 426.222 69.3333V61.3333C424.493 62.1875 422.667 62.6667 420.667 62.6667C418.667 62.6667 416.778 62.1875 415.111 61.3333V69.3333C415.111 70.5625 414.118 71.5556 412.889 71.5556H410.667C409.44 71.5556 408.444 70.5625 408.444 69.3333V53.3472C406.447 52.5903 404.878 50.8958 404.336 48.7292L404.066 47.6528C403.769 46.4583 404.493 45.25 405.683 44.8958C406.874 44.6597 408.081 45.3819 408.378 46.5694L408.648 47.6528C408.895 48.6389 409.784 49.2708 410.803 49.2708H425.097L432.889 53.7847Z" fill="#FFBCBC"/>
</g>
<g clip-path="url(#clip16_218_57)">
<path d="M427.104 353.378C427.236 352.583 427.924 352 428.729 352C429.25 352 429.736 352.244 430.049 352.66L431.222 354.222H434.84C435.722 354.222 436.576 354.574 437.201 355.199L438.444 356.444H442.333C443.257 356.444 444 357.191 444 358.111V359.778C444 362.847 441.514 365.333 438.444 365.333H433.632L433.278 367.451L425.5 363.007L427.104 353.378ZM435.111 356.444C434.5 356.444 434 356.942 434 357.556C434 358.169 434.5 358.667 435.111 358.667C435.722 358.667 436.222 358.169 436.222 357.556C436.222 356.942 435.722 356.444 435.111 356.444ZM432.889 369.785V385.333C432.889 386.563 431.896 387.556 430.667 387.556H428.444C427.215 387.556 426.222 386.563 426.222 385.333V377.333C424.493 378.188 422.667 378.667 420.667 378.667C418.667 378.667 416.778 378.188 415.111 377.333V385.333C415.111 386.563 414.118 387.556 412.889 387.556H410.667C409.44 387.556 408.444 386.563 408.444 385.333V369.347C406.447 368.59 404.878 366.896 404.336 364.729L404.066 363.653C403.769 362.458 404.493 361.25 405.683 360.896C406.874 360.66 408.081 361.382 408.378 362.569L408.648 363.653C408.895 364.639 409.784 365.271 410.803 365.271H425.097L432.889 369.785Z" fill="#FFBCBC"/>
</g>
<g clip-path="url(#clip17_218_57)">
<path d="M62.1042 340.378C62.2361 339.583 62.9236 339 63.7292 339C64.25 339 64.7361 339.244 65.0486 339.66L66.2222 341.222H69.8403C70.7222 341.222 71.5764 341.574 72.2014 342.199L73.4444 343.444H77.3333C78.2569 343.444 79 344.191 79 345.111V346.778C79 349.847 76.5139 352.333 73.4444 352.333H68.6319L68.2778 354.451L60.5 350.007L62.1042 340.378ZM70.1111 343.444C69.5 343.444 69 343.942 69 344.556C69 345.169 69.5 345.667 70.1111 345.667C70.7222 345.667 71.2222 345.169 71.2222 344.556C71.2222 343.942 70.7222 343.444 70.1111 343.444ZM67.8889 356.785V372.333C67.8889 373.563 66.8958 374.556 65.6666 374.556H63.4444C62.2153 374.556 61.2222 373.563 61.2222 372.333V364.333C59.493 365.188 57.6667 365.667 55.6667 365.667C53.6667 365.667 51.7778 365.188 50.1111 364.333V372.333C50.1111 373.563 49.118 374.556 47.8889 374.556H45.6667C44.4396 374.556 43.4444 373.563 43.4444 372.333V356.347C41.4465 355.59 39.8778 353.896 39.3358 351.729L39.0664 350.653C38.7687 349.458 39.4926 348.25 40.6833 347.896C41.8736 347.66 43.0805 348.382 43.3785 349.569L43.6479 350.653C43.8951 351.639 44.784 352.271 45.8035 352.271H60.0972L67.8889 356.785Z" fill="#FFBCBC"/>
</g>
<g clip-path="url(#clip18_218_57)">
<path d="M62.1042 643.378C62.2361 642.583 62.9236 642 63.7292 642C64.25 642 64.7361 642.244 65.0486 642.66L66.2222 644.222H69.8403C70.7222 644.222 71.5764 644.574 72.2014 645.199L73.4444 646.444H77.3333C78.2569 646.444 79 647.191 79 648.111V649.778C79 652.847 76.5139 655.333 73.4444 655.333H68.6319L68.2778 657.451L60.5 653.007L62.1042 643.378ZM70.1111 646.444C69.5 646.444 69 646.942 69 647.556C69 648.169 69.5 648.667 70.1111 648.667C70.7222 648.667 71.2222 648.169 71.2222 647.556C71.2222 646.942 70.7222 646.444 70.1111 646.444ZM67.8889 659.785V675.333C67.8889 676.563 66.8958 677.556 65.6666 677.556H63.4444C62.2153 677.556 61.2222 676.563 61.2222 675.333V667.333C59.493 668.188 57.6667 668.667 55.6667 668.667C53.6667 668.667 51.7778 668.188 50.1111 667.333V675.333C50.1111 676.563 49.118 677.556 47.8889 677.556H45.6667C44.4396 677.556 43.4444 676.563 43.4444 675.333V659.347C41.4465 658.59 39.8778 656.896 39.3358 654.729L39.0664 653.653C38.7687 652.458 39.4926 651.25 40.6833 650.896C41.8736 650.66 43.0805 651.382 43.3785 652.569L43.6479 653.653C43.8951 654.639 44.784 655.271 45.8035 655.271H60.0972L67.8889 659.785Z" fill="#FFBCBC"/>
</g>
<g clip-path="url(#clip19_218_57)">
<path d="M658.104 506.378C658.236 505.583 658.924 505 659.729 505C660.25 505 660.736 505.244 661.049 505.66L662.222 507.222H665.84C666.722 507.222 667.576 507.574 668.201 508.199L669.444 509.444H673.333C674.257 509.444 675 510.191 675 511.111V512.778C675 515.847 672.514 518.333 669.444 518.333H664.632L664.278 520.451L656.5 516.007L658.104 506.378ZM666.111 509.444C665.5 509.444 665 509.942 665 510.556C665 511.169 665.5 511.667 666.111 511.667C666.722 511.667 667.222 511.169 667.222 510.556C667.222 509.942 666.722 509.444 666.111 509.444ZM663.889 522.785V538.333C663.889 539.563 662.896 540.556 661.667 540.556H659.444C658.215 540.556 657.222 539.563 657.222 538.333V530.333C655.493 531.188 653.667 531.667 651.667 531.667C649.667 531.667 647.778 531.188 646.111 530.333V538.333C646.111 539.563 645.118 540.556 643.889 540.556H641.667C640.44 540.556 639.444 539.563 639.444 538.333V522.347C637.447 521.59 635.878 519.896 635.336 517.729L635.066 516.653C634.769 515.458 635.493 514.25 636.683 513.896C637.874 513.66 639.081 514.382 639.378 515.569L639.648 516.653C639.895 517.639 640.784 518.271 641.803 518.271H656.097L663.889 522.785Z" fill="#FFBCBC"/>
</g>
<g clip-path="url(#clip20_218_57)">
<path d="M768.104 240.378C768.236 239.583 768.924 239 769.729 239C770.25 239 770.736 239.244 771.049 239.66L772.222 241.222H775.84C776.722 241.222 777.576 241.574 778.201 242.199L779.444 243.444H783.333C784.257 243.444 785 244.191 785 245.111V246.778C785 249.847 782.514 252.333 779.444 252.333H774.632L774.278 254.451L766.5 250.007L768.104 240.378ZM776.111 243.444C775.5 243.444 775 243.942 775 244.556C775 245.169 775.5 245.667 776.111 245.667C776.722 245.667 777.222 245.169 777.222 244.556C777.222 243.942 776.722 243.444 776.111 243.444ZM773.889 256.785V272.333C773.889 273.563 772.896 274.556 771.667 274.556H769.444C768.215 274.556 767.222 273.563 767.222 272.333V264.333C765.493 265.188 763.667 265.667 761.667 265.667C759.667 265.667 757.778 265.188 756.111 264.333V272.333C756.111 273.563 755.118 274.556 753.889 274.556H751.667C750.44 274.556 749.444 273.563 749.444 272.333V256.347C747.447 255.59 745.878 253.896 745.336 251.729L745.066 250.653C744.769 249.458 745.493 248.25 746.683 247.896C747.874 247.66 749.081 248.382 749.378 249.569L749.648 250.653C749.895 251.639 750.784 252.271 751.803 252.271H766.097L773.889 256.785Z" fill="#FFBCBC"/>
</g>
<path d="M59.0027 43.9864C52.801 43.9864 44.0707 57.3967 44.0707 65.8669C44.0019 69.6813 46.0913 71.9655 49.6106 71.9655C53.4237 71.9655 55.9475 69.2223 59.0027 69.2223C62.0891 69.2223 64.6208 71.9655 68.3948 71.9655C71.8406 71.9655 74.0003 69.6835 74.0003 65.8724C73.9347 57.4076 65.2068 43.9864 59.0027 43.9864ZM47.5009 42.6093C46.6906 38.8255 44.1801 36.3664 41.9047 37.1315C39.6294 37.8965 38.4445 41.5819 39.2551 45.3635C40.0654 49.156 42.5759 51.6151 44.8513 50.85C47.1267 50.085 48.3057 46.3908 47.5009 42.6093ZM54.1191 40.336C56.5312 39.448 57.7424 34.9697 56.8149 30.1312C55.8874 25.2928 53.1815 22.3605 50.76 23.1507C48.3479 24.0387 47.1368 28.517 48.0643 33.3554C48.9933 38.0955 51.6969 41.2322 54.1191 40.336ZM76.1069 37.1337C73.8316 36.467 71.321 38.8277 70.5107 42.6115C69.7005 46.3963 70.8819 50.0839 73.1572 50.8489C75.4326 51.5156 77.933 49.1549 78.7534 45.3711C79.5606 41.5819 78.3104 37.8987 76.1069 37.1337ZM63.8863 40.336C66.2382 41.224 69.0136 38.0955 69.9411 33.3554C70.8686 28.6153 69.6579 24.0381 67.2454 23.1507C64.8935 22.2627 62.118 25.3912 61.1905 30.1312C60.2607 34.8713 61.4718 39.4507 63.8863 40.336Z" fill="#FFBCBC"/>
<defs>
<clipPath id="clip0_218_57">
<rect width="40" height="35.5556" fill="white" transform="translate(185 202)"/>
</clipPath>
<clipPath id="clip1_218_57">
<rect width="40" height="35.5556" fill="white" transform="translate(575 202)"/>
</clipPath>
<clipPath id="clip2_218_57">
<rect width="40" height="35.5556" fill="white" transform="translate(785 139)"/>
</clipPath>
<clipPath id="clip3_218_57">
<rect width="40" height="35.5556" fill="white" transform="translate(745 364)"/>
</clipPath>
<clipPath id="clip4_218_57">
<rect width="40" height="35.5556" fill="white" transform="translate(575 40)"/>
</clipPath>
<clipPath id="clip5_218_57">
<rect width="40" height="35.5556" fill="white" transform="translate(484 419)"/>
</clipPath>
<clipPath id="clip6_218_57">
<rect width="40" height="35.5556" fill="white" transform="translate(755 642)"/>
</clipPath>
<clipPath id="clip7_218_57">
<rect width="40" height="35.5556" fill="white" transform="translate(370 642)"/>
</clipPath>
<clipPath id="clip8_218_57">
<rect width="40" height="35.5556" fill="white" transform="translate(205 678)"/>
</clipPath>
<clipPath id="clip9_218_57">
<rect width="40" height="35.5556" fill="white" transform="translate(655 678)"/>
</clipPath>
<clipPath id="clip10_218_57">
<rect width="40" height="35.5556" fill="white" transform="translate(655 264)"/>
</clipPath>
<clipPath id="clip11_218_57">
<rect width="40" height="35.5556" fill="white" transform="translate(649 79)"/>
</clipPath>
<clipPath id="clip12_218_57">
<rect width="40" height="35.5556" fill="white" transform="translate(205 474)"/>
</clipPath>
<clipPath id="clip13_218_57">
<rect width="40" height="35.5556" fill="white" transform="translate(59 226)"/>
</clipPath>
<clipPath id="clip14_218_57">
<rect width="40" height="35.5556" fill="white" transform="translate(205 29)"/>
</clipPath>
<clipPath id="clip15_218_57">
<rect width="40" height="35.5556" fill="white" transform="translate(404 36)"/>
</clipPath>
<clipPath id="clip16_218_57">
<rect width="40" height="35.5556" fill="white" transform="translate(404 352)"/>
</clipPath>
<clipPath id="clip17_218_57">
<rect width="40" height="35.5556" fill="white" transform="translate(39 339)"/>
</clipPath>
<clipPath id="clip18_218_57">
<rect width="40" height="35.5556" fill="white" transform="translate(39 642)"/>
</clipPath>
<clipPath id="clip19_218_57">
<rect width="40" height="35.5556" fill="white" transform="translate(635 505)"/>
</clipPath>
<clipPath id="clip20_218_57">
<rect width="40" height="35.5556" fill="white" transform="translate(745 239)"/>
</clipPath>
</defs>
</svg>
