<svg width="1332" height="1125" viewBox="0 0 1332 1125" fill="none" xmlns="http://www.w3.org/2000/svg">
<rect width="1331.63" height="1125" transform="translate(0.18367)" fill="white"/>
<path d="M252.739 514.265C243.246 514.265 229.884 534.791 229.884 547.756C229.778 553.594 232.977 557.09 238.363 557.09C244.2 557.09 248.063 552.891 252.739 552.891C257.463 552.891 261.338 557.09 267.114 557.09C272.389 557.09 275.694 553.597 275.694 547.764C275.594 534.808 262.235 514.265 252.739 514.265ZM235.134 512.157C233.894 506.366 230.051 502.602 226.568 503.773C223.086 504.944 221.272 510.585 222.513 516.373C223.753 522.178 227.596 525.942 231.079 524.771C234.561 523.6 236.366 517.945 235.134 512.157ZM245.264 508.678C248.956 507.319 250.81 500.464 249.39 493.058C247.97 485.652 243.829 481.164 240.122 482.374C236.431 483.733 234.577 490.587 235.996 497.993C237.418 505.248 241.556 510.049 245.264 508.678ZM278.919 503.776C275.436 502.756 271.593 506.369 270.353 512.161C269.113 517.954 270.921 523.598 274.404 524.769C277.887 525.789 281.714 522.176 282.97 516.385C284.205 510.585 282.291 504.947 278.919 503.776ZM260.214 508.678C263.814 510.037 268.062 505.248 269.481 497.993C270.901 490.738 269.048 483.732 265.355 482.374C261.755 481.014 257.507 485.803 256.088 493.058C254.664 500.313 256.518 507.323 260.214 508.678Z" fill="#FF0000" fill-opacity="0.4"/>
<path d="M725.698 198.959C716.206 198.959 702.843 219.485 702.843 232.45C702.738 238.288 705.936 241.784 711.322 241.784C717.159 241.784 721.022 237.585 725.698 237.585C730.422 237.585 734.297 241.784 740.074 241.784C745.348 241.784 748.654 238.291 748.654 232.458C748.553 219.502 735.194 198.959 725.698 198.959ZM708.093 196.851C706.853 191.06 703.01 187.296 699.528 188.467C696.045 189.638 694.231 195.279 695.472 201.067C696.712 206.872 700.555 210.635 704.038 209.464C707.52 208.293 709.325 202.639 708.093 196.851ZM718.223 193.372C721.915 192.012 723.769 185.158 722.349 177.752C720.93 170.346 716.788 165.858 713.082 167.068C709.39 168.427 707.536 175.281 708.956 182.687C710.378 189.942 714.516 194.743 718.223 193.372ZM751.878 188.47C748.395 187.45 744.553 191.063 743.312 196.854C742.072 202.648 743.88 208.292 747.363 209.463C750.846 210.483 754.673 206.87 755.929 201.078C757.164 195.279 755.251 189.641 751.878 188.47ZM733.173 193.372C736.773 194.731 741.021 189.942 742.44 182.687C743.86 175.432 742.007 168.426 738.314 167.068C734.714 165.708 730.466 170.497 729.047 177.752C727.624 185.007 729.477 192.017 733.173 193.372Z" fill="#FF0000" fill-opacity="0.4"/>
<path d="M941.514 589.265C932.022 589.265 918.659 609.791 918.659 622.756C918.554 628.594 921.752 632.09 927.139 632.09C932.975 632.09 936.838 627.891 941.514 627.891C946.238 627.891 950.113 632.09 955.89 632.09C961.164 632.09 964.47 628.597 964.47 622.764C964.369 609.808 951.01 589.265 941.514 589.265ZM923.91 587.157C922.669 581.366 918.827 577.602 915.344 578.773C911.861 579.944 910.048 585.585 911.288 591.373C912.529 597.178 916.371 600.942 919.854 599.771C923.337 598.6 925.141 592.945 923.91 587.157ZM934.039 583.678C937.731 582.319 939.585 575.464 938.166 568.058C936.746 560.652 932.604 556.164 928.898 557.374C925.206 558.733 923.352 565.587 924.772 572.993C926.194 580.248 930.332 585.049 934.039 583.678ZM967.694 578.776C964.212 577.756 960.369 581.369 959.129 587.161C957.888 592.954 959.697 598.598 963.179 599.769C966.662 600.789 970.489 597.176 971.745 591.385C972.98 585.585 971.067 579.947 967.694 578.776ZM948.989 583.678C952.589 585.037 956.837 580.248 958.257 572.993C959.676 565.738 957.823 558.732 954.131 557.374C950.531 556.014 946.283 560.803 944.863 568.058C943.44 575.313 945.294 582.323 948.989 583.678Z" fill="#FF0000" fill-opacity="0.4"/>
<path d="M771.616 880.081C762.124 880.081 748.761 900.607 748.761 913.572C748.656 919.41 751.854 922.906 757.241 922.906C763.077 922.906 766.94 918.707 771.616 918.707C776.341 918.707 780.215 922.906 785.992 922.906C791.266 922.906 794.572 919.413 794.572 913.58C794.472 900.624 781.112 880.081 771.616 880.081ZM754.012 877.973C752.771 872.182 748.929 868.418 745.446 869.589C741.963 870.76 740.15 876.401 741.39 882.189C742.631 887.994 746.473 891.758 749.956 890.587C753.439 889.416 755.243 883.761 754.012 877.973ZM764.142 874.494C767.834 873.134 769.687 866.28 768.268 858.874C766.848 851.468 762.706 846.98 759 848.19C755.308 849.549 753.454 856.403 754.874 863.809C756.296 871.064 760.434 875.865 764.142 874.494ZM797.796 869.592C794.314 868.572 790.471 872.185 789.231 877.977C787.991 883.77 789.799 889.414 793.282 890.585C796.764 891.605 800.591 887.992 801.847 882.201C803.083 876.401 801.169 870.763 797.796 869.592ZM779.091 874.494C782.691 875.853 786.939 871.064 788.359 863.809C789.778 856.554 787.925 849.548 784.233 848.19C780.633 846.83 776.385 851.619 774.965 858.874C773.542 866.129 775.396 873.139 779.091 874.494Z" fill="#FF0000" fill-opacity="0.4"/>
<path d="M595.596 832.632C586.103 832.632 572.741 853.158 572.741 866.123C572.636 871.961 575.834 875.457 581.22 875.457C587.057 875.457 590.92 871.259 595.596 871.259C600.32 871.259 604.195 875.457 609.972 875.457C615.246 875.457 618.552 871.965 618.552 866.131C618.451 853.175 605.092 832.632 595.596 832.632ZM577.991 830.524C576.751 824.733 572.908 820.969 569.426 822.14C565.943 823.311 564.129 828.952 565.37 834.74C566.61 840.545 570.453 844.309 573.936 843.138C577.418 841.967 579.223 836.313 577.991 830.524ZM588.121 827.045C591.813 825.686 593.667 818.831 592.247 811.425C590.828 804.02 586.686 799.531 582.98 800.741C579.288 802.1 577.434 808.955 578.853 816.36C580.275 823.616 584.414 828.417 588.121 827.045ZM621.776 822.143C618.293 821.123 614.451 824.736 613.21 830.528C611.97 836.321 613.778 841.965 617.261 843.136C620.744 844.157 624.571 840.543 625.827 834.752C627.062 828.952 625.149 823.314 621.776 822.143ZM603.071 827.045C606.671 828.404 610.919 823.616 612.338 816.36C613.758 809.105 611.905 802.099 608.212 800.741C604.612 799.382 600.364 804.17 598.945 811.425C597.521 818.681 599.375 825.69 603.071 827.045Z" fill="#FF0000" fill-opacity="0.4"/>
<path d="M375.188 918.347C365.695 918.347 352.333 938.873 352.333 951.837C352.227 957.676 355.425 961.172 360.812 961.172C366.649 961.172 370.512 956.973 375.188 956.973C379.912 956.973 383.787 961.172 389.563 961.172C394.838 961.172 398.143 957.679 398.143 951.846C398.043 938.889 384.684 918.347 375.188 918.347ZM357.583 916.239C356.343 910.447 352.5 906.683 349.017 907.854C345.535 909.025 343.721 914.666 344.962 920.454C346.202 926.259 350.045 930.023 353.527 928.852C357.01 927.681 358.815 922.027 357.583 916.239ZM367.713 912.759C371.405 911.4 373.259 904.546 371.839 897.14C370.419 889.734 366.278 885.246 362.571 886.455C358.879 887.814 357.026 894.669 358.445 902.075C359.867 909.33 364.005 914.131 367.713 912.759ZM401.368 907.858C397.885 906.837 394.042 910.451 392.802 916.242C391.562 922.035 393.37 927.68 396.853 928.851C400.336 929.871 404.163 926.258 405.418 920.466C406.654 914.666 404.74 909.029 401.368 907.858ZM382.663 912.759C386.263 914.118 390.511 909.33 391.93 902.075C393.35 894.82 391.497 887.814 387.804 886.455C384.204 885.096 379.956 889.885 378.537 897.14C377.113 904.395 378.967 911.404 382.663 912.759Z" fill="#FF0000" fill-opacity="0.4"/>
<path d="M1085.39 252.53C1075.9 252.53 1062.54 273.056 1062.54 286.021C1062.43 291.859 1065.63 295.355 1071.02 295.355C1076.85 295.355 1080.72 291.157 1085.39 291.157C1090.12 291.157 1093.99 295.355 1099.77 295.355C1105.04 295.355 1108.35 291.862 1108.35 286.029C1108.25 273.073 1094.89 252.53 1085.39 252.53ZM1067.79 250.422C1066.55 244.631 1062.7 240.867 1059.22 242.038C1055.74 243.209 1053.93 248.85 1055.17 254.638C1056.41 260.443 1060.25 264.207 1063.73 263.036C1067.21 261.865 1069.02 256.211 1067.79 250.422ZM1077.92 246.943C1081.61 245.584 1083.46 238.729 1082.04 231.323C1080.62 223.918 1076.48 219.429 1072.78 220.639C1069.08 221.998 1067.23 228.853 1068.65 236.258C1070.07 243.514 1074.21 248.315 1077.92 246.943ZM1111.57 242.041C1108.09 241.021 1104.25 244.634 1103.01 250.426C1101.77 256.219 1103.57 261.863 1107.06 263.034C1110.54 264.055 1114.37 260.441 1115.62 254.65C1116.86 248.85 1114.94 243.212 1111.57 242.041ZM1092.87 246.943C1096.47 248.302 1100.71 243.514 1102.13 236.258C1103.55 229.003 1101.7 221.997 1098.01 220.639C1094.41 219.28 1090.16 224.068 1088.74 231.323C1087.32 238.579 1089.17 245.588 1092.87 246.943Z" fill="#FF0000" fill-opacity="0.4"/>
<path d="M499.167 625.999C489.675 625.999 476.312 646.525 476.312 659.49C476.207 665.328 479.405 668.825 484.792 668.825C490.628 668.825 494.491 664.626 499.167 664.626C503.892 664.626 507.766 668.825 513.543 668.825C518.817 668.825 522.123 665.332 522.123 659.498C522.023 646.542 508.663 625.999 499.167 625.999ZM481.563 623.892C480.322 618.1 476.48 614.336 472.997 615.507C469.514 616.678 467.701 622.319 468.942 628.107C470.182 633.912 474.024 637.676 477.507 636.505C480.99 635.334 482.795 629.68 481.563 623.892ZM491.693 620.412C495.385 619.053 497.238 612.198 495.819 604.793C494.399 597.387 490.257 592.899 486.551 594.108C482.859 595.467 481.005 602.322 482.425 609.728C483.847 616.983 487.985 621.784 491.693 620.412ZM525.347 615.511C521.865 614.49 518.022 618.104 516.782 623.895C515.542 629.688 517.35 635.332 520.833 636.503C524.315 637.524 528.142 633.91 529.398 628.119C530.634 622.319 528.72 616.682 525.347 615.511ZM506.642 620.412C510.242 621.771 514.49 616.983 515.91 609.728C517.33 602.472 515.476 595.466 511.784 594.108C508.184 592.749 503.936 597.537 502.516 604.793C501.093 612.048 502.947 619.057 506.642 620.412Z" fill="#FF0000" fill-opacity="0.4"/>
<path d="M407.616 463.122C398.124 463.122 384.761 483.648 384.761 496.613C384.656 502.451 387.854 505.947 393.241 505.947C399.077 505.947 402.94 501.748 407.616 501.748C412.341 501.748 416.215 505.947 421.992 505.947C427.266 505.947 430.572 502.454 430.572 496.621C430.472 483.665 417.112 463.122 407.616 463.122ZM390.012 461.014C388.771 455.223 384.929 451.459 381.446 452.63C377.963 453.801 376.15 459.442 377.39 465.23C378.631 471.035 382.473 474.799 385.956 473.628C389.439 472.457 391.243 466.802 390.012 461.014ZM400.142 457.535C403.834 456.175 405.687 449.321 404.268 441.915C402.848 434.509 398.706 430.021 395 431.231C391.308 432.59 389.454 439.444 390.874 446.85C392.296 454.105 396.434 458.906 400.142 457.535ZM433.796 452.633C430.314 451.613 426.471 455.226 425.231 461.018C423.991 466.811 425.799 472.455 429.282 473.626C432.764 474.646 436.591 471.033 437.847 465.242C439.083 459.442 437.169 453.804 433.796 452.633ZM415.091 457.535C418.691 458.894 422.939 454.105 424.359 446.85C425.778 439.595 423.925 432.589 420.233 431.231C416.633 429.871 412.385 434.66 410.965 441.915C409.542 449.17 411.396 456.18 415.091 457.535Z" fill="#FF0000" fill-opacity="0.4"/>
<path d="M588.616 266.122C579.124 266.122 565.761 286.648 565.761 299.613C565.656 305.451 568.854 308.947 574.241 308.947C580.077 308.947 583.94 304.748 588.616 304.748C593.341 304.748 597.215 308.947 602.992 308.947C608.266 308.947 611.572 305.454 611.572 299.621C611.472 286.665 598.112 266.122 588.616 266.122ZM571.012 264.014C569.771 258.223 565.929 254.459 562.446 255.63C558.963 256.801 557.15 262.442 558.39 268.23C559.631 274.035 563.473 277.799 566.956 276.628C570.439 275.457 572.243 269.802 571.012 264.014ZM581.142 260.535C584.834 259.175 586.687 252.321 585.268 244.915C583.848 237.509 579.706 233.021 576 234.231C572.308 235.59 570.454 242.444 571.874 249.85C573.296 257.105 577.434 261.906 581.142 260.535ZM614.796 255.633C611.314 254.613 607.471 258.226 606.231 264.018C604.991 269.811 606.799 275.455 610.282 276.626C613.764 277.646 617.591 274.033 618.847 268.242C620.083 262.442 618.169 256.804 614.796 255.633ZM596.091 260.535C599.691 261.894 603.939 257.105 605.359 249.85C606.778 242.595 604.925 235.589 601.233 234.231C597.633 232.871 593.385 237.66 591.965 244.915C590.542 252.17 592.396 259.18 596.091 260.535Z" fill="#FF0000" fill-opacity="0.4"/>
<path d="M283.616 170.122C274.124 170.122 260.761 190.648 260.761 203.613C260.656 209.451 263.854 212.947 269.241 212.947C275.077 212.947 278.94 208.748 283.616 208.748C288.341 208.748 292.215 212.947 297.992 212.947C303.266 212.947 306.572 209.454 306.572 203.621C306.472 190.665 293.112 170.122 283.616 170.122ZM266.012 168.014C264.771 162.223 260.929 158.459 257.446 159.63C253.963 160.801 252.15 166.442 253.39 172.23C254.631 178.035 258.473 181.799 261.956 180.628C265.439 179.457 267.243 173.802 266.012 168.014ZM276.142 164.535C279.834 163.175 281.687 156.321 280.268 148.915C278.848 141.509 274.706 137.021 271 138.231C267.308 139.59 265.454 146.444 266.874 153.85C268.296 161.105 272.434 165.906 276.142 164.535ZM309.796 159.633C306.314 158.613 302.471 162.226 301.231 168.018C299.991 173.811 301.799 179.455 305.282 180.626C308.764 181.646 312.591 178.033 313.847 172.242C315.083 166.442 313.169 160.804 309.796 159.633ZM291.091 164.535C294.691 165.894 298.939 161.105 300.359 153.85C301.778 146.595 299.925 139.589 296.233 138.231C292.633 136.871 288.385 141.66 286.965 148.915C285.542 156.17 287.396 163.18 291.091 164.535Z" fill="#FF0000" fill-opacity="0.4"/>
<path d="M664.616 705.122C655.124 705.122 641.761 725.648 641.761 738.613C641.656 744.451 644.854 747.947 650.241 747.947C656.077 747.947 659.94 743.748 664.616 743.748C669.341 743.748 673.215 747.947 678.992 747.947C684.266 747.947 687.572 744.454 687.572 738.621C687.472 725.665 674.112 705.122 664.616 705.122ZM647.012 703.014C645.771 697.223 641.929 693.459 638.446 694.63C634.963 695.801 633.15 701.442 634.39 707.23C635.631 713.035 639.473 716.799 642.956 715.628C646.439 714.457 648.243 708.802 647.012 703.014ZM657.142 699.535C660.834 698.175 662.687 691.321 661.268 683.915C659.848 676.509 655.706 672.021 652 673.231C648.308 674.59 646.454 681.444 647.874 688.85C649.296 696.105 653.434 700.906 657.142 699.535ZM690.796 694.633C687.314 693.613 683.471 697.226 682.231 703.018C680.991 708.811 682.799 714.455 686.282 715.626C689.764 716.646 693.591 713.033 694.847 707.242C696.083 701.442 694.169 695.804 690.796 694.633ZM672.091 699.535C675.691 700.894 679.939 696.105 681.359 688.85C682.778 681.595 680.925 674.589 677.233 673.231C673.633 671.871 669.385 676.66 667.965 683.915C666.542 691.17 668.396 698.18 672.091 699.535Z" fill="#FF0000" fill-opacity="0.4"/>
<path d="M894.616 721.122C885.124 721.122 871.761 741.648 871.761 754.613C871.656 760.451 874.854 763.947 880.241 763.947C886.077 763.947 889.94 759.748 894.616 759.748C899.341 759.748 903.215 763.947 908.992 763.947C914.266 763.947 917.572 760.454 917.572 754.621C917.472 741.665 904.112 721.122 894.616 721.122ZM877.012 719.014C875.771 713.223 871.929 709.459 868.446 710.63C864.963 711.801 863.15 717.442 864.39 723.23C865.631 729.035 869.473 732.799 872.956 731.628C876.439 730.457 878.243 724.802 877.012 719.014ZM887.142 715.535C890.834 714.175 892.687 707.321 891.268 699.915C889.848 692.509 885.706 688.021 882 689.231C878.308 690.59 876.454 697.444 877.874 704.85C879.296 712.105 883.434 716.906 887.142 715.535ZM920.796 710.633C917.314 709.613 913.471 713.226 912.231 719.018C910.991 724.811 912.799 730.455 916.282 731.626C919.764 732.646 923.591 729.033 924.847 723.242C926.083 717.442 924.169 711.804 920.796 710.633ZM902.091 715.535C905.691 716.894 909.939 712.105 911.359 704.85C912.778 697.595 910.925 690.589 907.233 689.231C903.633 687.871 899.385 692.66 897.965 699.915C896.542 707.17 898.396 714.18 902.091 715.535Z" fill="#FF0000" fill-opacity="0.4"/>
<path d="M832.616 432.122C823.124 432.122 809.761 452.648 809.761 465.613C809.656 471.451 812.854 474.947 818.241 474.947C824.077 474.947 827.94 470.748 832.616 470.748C837.341 470.748 841.215 474.947 846.992 474.947C852.266 474.947 855.572 471.454 855.572 465.621C855.472 452.665 842.112 432.122 832.616 432.122ZM815.012 430.014C813.771 424.223 809.929 420.459 806.446 421.63C802.963 422.801 801.15 428.442 802.39 434.23C803.631 440.035 807.473 443.799 810.956 442.628C814.439 441.457 816.243 435.802 815.012 430.014ZM825.142 426.535C828.834 425.175 830.687 418.321 829.268 410.915C827.848 403.509 823.706 399.021 820 400.231C816.308 401.59 814.454 408.444 815.874 415.85C817.296 423.105 821.434 427.906 825.142 426.535ZM858.796 421.633C855.314 420.613 851.471 424.226 850.231 430.018C848.991 435.811 850.799 441.455 854.282 442.626C857.764 443.646 861.591 440.033 862.847 434.242C864.083 428.442 862.169 422.804 858.796 421.633ZM840.091 426.535C843.691 427.894 847.939 423.105 849.359 415.85C850.778 408.595 848.925 401.589 845.233 400.231C841.633 398.871 837.385 403.66 835.965 410.915C834.542 418.17 836.396 425.18 840.091 426.535Z" fill="#FF0000" fill-opacity="0.4"/>
<path d="M822.616 95.122C813.124 95.122 799.761 115.648 799.761 128.613C799.656 134.451 802.854 137.947 808.241 137.947C814.077 137.947 817.94 133.748 822.616 133.748C827.341 133.748 831.215 137.947 836.992 137.947C842.266 137.947 845.572 134.454 845.572 128.621C845.472 115.665 832.112 95.122 822.616 95.122ZM805.012 93.0142C803.771 87.2228 799.929 83.4588 796.446 84.6298C792.963 85.8008 791.15 91.4417 792.39 97.2298C793.631 103.035 797.473 106.799 800.956 105.628C804.439 104.457 806.243 98.8023 805.012 93.0142ZM815.142 89.5347C818.834 88.1755 820.687 81.3209 819.268 73.9152C817.848 66.5094 813.706 62.0211 810 63.2306C806.308 64.5898 804.454 71.4444 805.874 78.8501C807.296 86.1053 811.434 90.9064 815.142 89.5347ZM848.796 84.6332C845.314 83.6127 841.471 87.2261 840.231 93.0176C838.991 98.8107 840.799 104.455 844.282 105.626C847.764 106.646 851.591 103.033 852.847 97.2415C854.083 91.4417 852.169 85.8042 848.796 84.6332ZM830.091 89.5347C833.691 90.8939 837.939 86.1053 839.359 78.8501C840.778 71.5949 838.925 64.589 835.233 63.2306C831.633 61.8714 827.385 66.66 825.965 73.9152C824.542 81.1704 826.396 88.1796 830.091 89.5347Z" fill="#FF0000" fill-opacity="0.4"/>
<path d="M1146.62 792.122C1137.12 792.122 1123.76 812.648 1123.76 825.613C1123.66 831.451 1126.85 834.947 1132.24 834.947C1138.08 834.947 1141.94 830.748 1146.62 830.748C1151.34 830.748 1155.22 834.947 1160.99 834.947C1166.27 834.947 1169.57 831.454 1169.57 825.621C1169.47 812.665 1156.11 792.122 1146.62 792.122ZM1129.01 790.014C1127.77 784.223 1123.93 780.459 1120.45 781.63C1116.96 782.801 1115.15 788.442 1116.39 794.23C1117.63 800.035 1121.47 803.799 1124.96 802.628C1128.44 801.457 1130.24 795.802 1129.01 790.014ZM1139.14 786.535C1142.83 785.175 1144.69 778.321 1143.27 770.915C1141.85 763.509 1137.71 759.021 1134 760.231C1130.31 761.59 1128.45 768.444 1129.87 775.85C1131.3 783.105 1135.43 787.906 1139.14 786.535ZM1172.8 781.633C1169.31 780.613 1165.47 784.226 1164.23 790.018C1162.99 795.811 1164.8 801.455 1168.28 802.626C1171.76 803.646 1175.59 800.033 1176.85 794.242C1178.08 788.442 1176.17 782.804 1172.8 781.633ZM1154.09 786.535C1157.69 787.894 1161.94 783.105 1163.36 775.85C1164.78 768.595 1162.93 761.589 1159.23 760.231C1155.63 758.871 1151.38 763.66 1149.97 770.915C1148.54 778.17 1150.4 785.18 1154.09 786.535Z" fill="#FF0000" fill-opacity="0.4"/>
<path d="M89.6164 197.122C80.1239 197.122 66.7613 217.648 66.7613 230.613C66.656 236.451 69.8541 239.947 75.2408 239.947C81.0771 239.947 84.9401 235.748 89.6164 235.748C94.3405 235.748 98.2155 239.947 103.992 239.947C109.266 239.947 112.572 236.454 112.572 230.621C112.472 217.665 99.1124 197.122 89.6164 197.122ZM72.0116 195.014C70.7714 189.223 66.9287 185.459 63.446 186.63C59.9634 187.801 58.1498 193.442 59.3905 199.23C60.6307 205.035 64.4734 208.799 67.9561 207.628C71.4388 206.457 73.2435 200.802 72.0116 195.014ZM82.1415 191.535C85.8335 190.175 87.6873 183.321 86.2677 175.915C84.848 168.509 80.7064 164.021 77 165.231C73.3081 166.59 71.4543 173.444 72.8739 180.85C74.2959 188.105 78.434 192.906 82.1415 191.535ZM115.796 186.633C112.314 185.613 108.471 189.226 107.231 195.018C105.991 200.811 107.799 206.455 111.282 207.626C114.764 208.646 118.591 205.033 119.847 199.242C121.083 193.442 119.169 187.804 115.796 186.633ZM97.0912 191.535C100.691 192.894 104.939 188.105 106.359 180.85C107.778 173.595 105.925 166.589 102.233 165.231C98.6329 163.871 94.3848 168.66 92.9651 175.915C91.5419 183.17 93.3957 190.18 97.0912 191.535Z" fill="#FF0000" fill-opacity="0.4"/>
<path d="M369.616 598.122C360.124 598.122 346.761 618.648 346.761 631.613C346.656 637.451 349.854 640.947 355.241 640.947C361.077 640.947 364.94 636.748 369.616 636.748C374.341 636.748 378.215 640.947 383.992 640.947C389.266 640.947 392.572 637.454 392.572 631.621C392.472 618.665 379.112 598.122 369.616 598.122ZM352.012 596.014C350.771 590.223 346.929 586.459 343.446 587.63C339.963 588.801 338.15 594.442 339.39 600.23C340.631 606.035 344.473 609.799 347.956 608.628C351.439 607.457 353.243 601.802 352.012 596.014ZM362.142 592.535C365.834 591.175 367.687 584.321 366.268 576.915C364.848 569.509 360.706 565.021 357 566.231C353.308 567.59 351.454 574.444 352.874 581.85C354.296 589.105 358.434 593.906 362.142 592.535ZM395.796 587.633C392.314 586.613 388.471 590.226 387.231 596.018C385.991 601.811 387.799 607.455 391.282 608.626C394.764 609.646 398.591 606.033 399.847 600.242C401.083 594.442 399.169 588.804 395.796 587.633ZM377.091 592.535C380.691 593.894 384.939 589.105 386.359 581.85C387.778 574.595 385.925 567.589 382.233 566.231C378.633 564.871 374.385 569.66 372.965 576.915C371.542 584.17 373.396 591.18 377.091 592.535Z" fill="#FF0000" fill-opacity="0.4"/>
<path d="M468.616 823.122C459.124 823.122 445.761 843.648 445.761 856.613C445.656 862.451 448.854 865.947 454.241 865.947C460.077 865.947 463.94 861.748 468.616 861.748C473.341 861.748 477.215 865.947 482.992 865.947C488.266 865.947 491.572 862.454 491.572 856.621C491.472 843.665 478.112 823.122 468.616 823.122ZM451.012 821.014C449.771 815.223 445.929 811.459 442.446 812.63C438.963 813.801 437.15 819.442 438.39 825.23C439.631 831.035 443.473 834.799 446.956 833.628C450.439 832.457 452.243 826.802 451.012 821.014ZM461.142 817.535C464.834 816.175 466.687 809.321 465.268 801.915C463.848 794.509 459.706 790.021 456 791.231C452.308 792.59 450.454 799.444 451.874 806.85C453.296 814.105 457.434 818.906 461.142 817.535ZM494.796 812.633C491.314 811.613 487.471 815.226 486.231 821.018C484.991 826.811 486.799 832.455 490.282 833.626C493.764 834.646 497.591 831.033 498.847 825.242C500.083 819.442 498.169 813.804 494.796 812.633ZM476.091 817.535C479.691 818.894 483.939 814.105 485.359 806.85C486.778 799.595 484.925 792.589 481.233 791.231C477.633 789.871 473.385 794.66 471.965 801.915C470.542 809.17 472.396 816.18 476.091 817.535Z" fill="#FF0000" fill-opacity="0.4"/>
<path d="M764.616 1015.12C755.124 1015.12 741.761 1035.65 741.761 1048.61C741.656 1054.45 744.854 1057.95 750.241 1057.95C756.077 1057.95 759.94 1053.75 764.616 1053.75C769.341 1053.75 773.215 1057.95 778.992 1057.95C784.266 1057.95 787.572 1054.45 787.572 1048.62C787.472 1035.66 774.112 1015.12 764.616 1015.12ZM747.012 1013.01C745.771 1007.22 741.929 1003.46 738.446 1004.63C734.963 1005.8 733.15 1011.44 734.39 1017.23C735.631 1023.03 739.473 1026.8 742.956 1025.63C746.439 1024.46 748.243 1018.8 747.012 1013.01ZM757.142 1009.53C760.834 1008.18 762.687 1001.32 761.268 993.915C759.848 986.509 755.706 982.021 752 983.231C748.308 984.59 746.454 991.444 747.874 998.85C749.296 1006.11 753.434 1010.91 757.142 1009.53ZM790.796 1004.63C787.314 1003.61 783.471 1007.23 782.231 1013.02C780.991 1018.81 782.799 1024.45 786.282 1025.63C789.764 1026.65 793.591 1023.03 794.847 1017.24C796.083 1011.44 794.169 1005.8 790.796 1004.63ZM772.091 1009.53C775.691 1010.89 779.939 1006.11 781.359 998.85C782.778 991.595 780.925 984.589 777.233 983.231C773.633 981.871 769.385 986.66 767.965 993.915C766.542 1001.17 768.396 1008.18 772.091 1009.53Z" fill="#FF0000" fill-opacity="0.4"/>
<path d="M769.616 545.122C760.124 545.122 746.761 565.648 746.761 578.613C746.656 584.451 749.854 587.947 755.241 587.947C761.077 587.947 764.94 583.748 769.616 583.748C774.341 583.748 778.215 587.947 783.992 587.947C789.266 587.947 792.572 584.454 792.572 578.621C792.472 565.665 779.112 545.122 769.616 545.122ZM752.012 543.014C750.771 537.223 746.929 533.459 743.446 534.63C739.963 535.801 738.15 541.442 739.39 547.23C740.631 553.035 744.473 556.799 747.956 555.628C751.439 554.457 753.243 548.802 752.012 543.014ZM762.142 539.535C765.834 538.175 767.687 531.321 766.268 523.915C764.848 516.509 760.706 512.021 757 513.231C753.308 514.59 751.454 521.444 752.874 528.85C754.296 536.105 758.434 540.906 762.142 539.535ZM795.796 534.633C792.314 533.613 788.471 537.226 787.231 543.018C785.991 548.811 787.799 554.455 791.282 555.626C794.764 556.646 798.591 553.033 799.847 547.242C801.083 541.442 799.169 535.804 795.796 534.633ZM777.091 539.535C780.691 540.894 784.939 536.105 786.359 528.85C787.778 521.595 785.925 514.589 782.233 513.231C778.633 511.871 774.385 516.66 772.965 523.915C771.542 531.17 773.396 538.18 777.091 539.535Z" fill="#FF0000" fill-opacity="0.4"/>
<path d="M864.616 243.122C855.124 243.122 841.761 263.648 841.761 276.613C841.656 282.451 844.854 285.947 850.241 285.947C856.077 285.947 859.94 281.748 864.616 281.748C869.341 281.748 873.215 285.947 878.992 285.947C884.266 285.947 887.572 282.454 887.572 276.621C887.472 263.665 874.112 243.122 864.616 243.122ZM847.012 241.014C845.771 235.223 841.929 231.459 838.446 232.63C834.963 233.801 833.15 239.442 834.39 245.23C835.631 251.035 839.473 254.799 842.956 253.628C846.439 252.457 848.243 246.802 847.012 241.014ZM857.142 237.535C860.834 236.175 862.687 229.321 861.268 221.915C859.848 214.509 855.706 210.021 852 211.231C848.308 212.59 846.454 219.444 847.874 226.85C849.296 234.105 853.434 238.906 857.142 237.535ZM890.796 232.633C887.314 231.613 883.471 235.226 882.231 241.018C880.991 246.811 882.799 252.455 886.282 253.626C889.764 254.646 893.591 251.033 894.847 245.242C896.083 239.442 894.169 233.804 890.796 232.633ZM872.091 237.535C875.691 238.894 879.939 234.105 881.359 226.85C882.778 219.595 880.925 212.589 877.233 211.231C873.633 209.871 869.385 214.66 867.965 221.915C866.542 229.17 868.396 236.18 872.091 237.535Z" fill="#FF0000" fill-opacity="0.4"/>
<path d="M1094.62 627.122C1085.12 627.122 1071.76 647.648 1071.76 660.613C1071.66 666.451 1074.85 669.947 1080.24 669.947C1086.08 669.947 1089.94 665.748 1094.62 665.748C1099.34 665.748 1103.22 669.947 1108.99 669.947C1114.27 669.947 1117.57 666.454 1117.57 660.621C1117.47 647.665 1104.11 627.122 1094.62 627.122ZM1077.01 625.014C1075.77 619.223 1071.93 615.459 1068.45 616.63C1064.96 617.801 1063.15 623.442 1064.39 629.23C1065.63 635.035 1069.47 638.799 1072.96 637.628C1076.44 636.457 1078.24 630.802 1077.01 625.014ZM1087.14 621.535C1090.83 620.175 1092.69 613.321 1091.27 605.915C1089.85 598.509 1085.71 594.021 1082 595.231C1078.31 596.59 1076.45 603.444 1077.87 610.85C1079.3 618.105 1083.43 622.906 1087.14 621.535ZM1120.8 616.633C1117.31 615.613 1113.47 619.226 1112.23 625.018C1110.99 630.811 1112.8 636.455 1116.28 637.626C1119.76 638.646 1123.59 635.033 1124.85 629.242C1126.08 623.442 1124.17 617.804 1120.8 616.633ZM1102.09 621.535C1105.69 622.894 1109.94 618.105 1111.36 610.85C1112.78 603.595 1110.93 596.589 1107.23 595.231C1103.63 593.871 1099.38 598.66 1097.97 605.915C1096.54 613.17 1098.4 620.18 1102.09 621.535Z" fill="#FF0000" fill-opacity="0.4"/>
<path d="M471.617 163.906C461.175 163.906 446.476 186.484 446.476 200.745C446.36 207.167 449.878 211.013 455.804 211.013C462.224 211.013 466.473 206.394 471.617 206.394C476.813 206.394 481.076 211.013 487.43 211.013C493.232 211.013 496.868 207.171 496.868 200.754C496.757 186.502 482.062 163.906 471.617 163.906ZM452.252 161.587C450.887 155.216 446.66 151.076 442.829 152.364C438.998 153.652 437.004 159.857 438.368 166.224C439.733 172.609 443.96 176.75 447.79 175.462C451.621 174.174 453.607 167.954 452.252 161.587ZM463.394 157.759C467.456 156.264 469.495 148.724 467.933 140.578C466.372 132.432 461.816 127.495 457.739 128.825C453.678 130.32 451.639 137.86 453.2 146.006C454.764 153.987 459.316 159.268 463.394 157.759ZM500.415 152.368C496.584 151.245 492.357 155.22 490.993 161.591C489.628 167.963 491.617 174.172 495.448 175.46C499.279 176.582 503.489 172.608 504.871 166.237C506.23 159.857 504.125 153.656 500.415 152.368ZM479.839 157.759C483.799 159.255 488.472 153.987 490.034 146.006C491.595 138.026 489.557 130.319 485.495 128.825C481.535 127.33 476.862 132.597 475.3 140.578C473.735 148.559 475.774 156.269 479.839 157.759Z" fill="#FF9999"/>
<path d="M1232.33 757.632C1222.84 757.632 1209.48 778.158 1209.48 791.123C1209.37 796.961 1212.57 800.457 1217.96 800.457C1223.79 800.457 1227.65 796.259 1232.33 796.259C1237.05 796.259 1240.93 800.457 1246.71 800.457C1251.98 800.457 1255.29 796.965 1255.29 791.131C1255.19 778.175 1241.83 757.632 1232.33 757.632ZM1214.73 755.524C1213.49 749.733 1209.64 745.969 1206.16 747.14C1202.68 748.311 1200.86 753.952 1202.1 759.74C1203.35 765.545 1207.19 769.309 1210.67 768.138C1214.15 766.967 1215.96 761.313 1214.73 755.524ZM1224.86 752.045C1228.55 750.686 1230.4 743.831 1228.98 736.425C1227.56 729.02 1223.42 724.531 1219.71 725.741C1216.02 727.1 1214.17 733.955 1215.59 741.36C1217.01 748.616 1221.15 753.417 1224.86 752.045ZM1258.51 747.143C1255.03 746.123 1251.19 749.736 1249.95 755.528C1248.7 761.321 1250.51 766.965 1254 768.136C1257.48 769.157 1261.31 765.543 1262.56 759.752C1263.8 753.952 1261.88 748.314 1258.51 747.143ZM1239.81 752.045C1243.41 753.404 1247.65 748.616 1249.07 741.36C1250.49 734.105 1248.64 727.099 1244.95 725.741C1241.35 724.382 1237.1 729.17 1235.68 736.425C1234.26 743.681 1236.11 750.69 1239.81 752.045Z" fill="#FF0000" fill-opacity="0.4"/>
<path d="M222.127 955.081C212.634 955.081 199.271 975.607 199.271 988.572C199.166 994.41 202.364 997.906 207.751 997.906C213.587 997.906 217.45 993.707 222.127 993.707C226.851 993.707 230.726 997.906 236.502 997.906C241.776 997.906 245.082 994.413 245.082 988.58C244.982 975.624 231.623 955.081 222.127 955.081ZM204.522 952.973C203.282 947.182 199.439 943.418 195.956 944.589C192.474 945.76 190.66 951.401 191.901 957.189C193.141 962.994 196.984 966.758 200.466 965.587C203.949 964.416 205.754 958.761 204.522 952.973ZM214.652 949.494C218.344 948.134 220.197 941.28 218.778 933.874C217.358 926.468 213.217 921.98 209.51 923.19C205.818 924.549 203.964 931.403 205.384 938.809C206.806 946.064 210.944 950.865 214.652 949.494ZM248.307 944.592C244.824 943.572 240.981 947.185 239.741 952.977C238.501 958.77 240.309 964.414 243.792 965.585C247.274 966.605 251.102 962.992 252.357 957.201C253.593 951.401 251.679 945.763 248.307 944.592ZM229.601 949.494C233.201 950.853 237.449 946.064 238.869 938.809C240.289 931.554 238.436 924.548 234.743 923.19C231.143 921.83 226.895 926.619 225.475 933.874C224.052 941.129 225.906 948.139 229.601 949.494Z" fill="#FF0000" fill-opacity="0.4"/>
<path d="M90.4939 823.449C81.0015 823.449 67.6388 843.975 67.6388 856.939C67.5336 862.778 70.7316 866.274 76.1183 866.274C81.9547 866.274 85.8177 862.075 90.4939 862.075C95.2181 862.075 99.093 866.274 104.87 866.274C110.144 866.274 113.45 862.781 113.45 856.948C113.349 843.991 99.99 823.449 90.4939 823.449ZM72.8892 821.341C71.6489 815.549 67.8063 811.785 64.3236 812.956C60.8409 814.127 59.0273 819.768 60.268 825.556C61.5083 831.361 65.3509 835.125 68.8336 833.954C72.3163 832.783 74.121 827.129 72.8892 821.341ZM83.0191 817.861C86.7111 816.502 88.5648 809.648 87.1452 802.242C85.7256 794.836 81.5839 790.348 77.8776 791.557C74.1856 792.916 72.3318 799.771 73.7515 807.177C75.1735 814.432 79.3116 819.233 83.0191 817.861ZM116.674 812.96C113.191 811.939 109.349 815.553 108.108 821.344C106.868 827.137 108.676 832.782 112.159 833.953C115.642 834.973 119.469 831.36 120.725 825.568C121.96 819.768 120.047 814.131 116.674 812.96ZM97.9688 817.861C101.569 819.221 105.817 814.432 107.236 807.177C108.656 799.922 106.803 792.916 103.11 791.557C99.5104 790.198 95.2623 794.987 93.8427 802.242C92.4195 809.497 94.2732 816.506 97.9688 817.861Z" fill="#FF0000" fill-opacity="0.4"/>
<path d="M191.514 235.693C182.022 235.693 168.659 256.219 168.659 269.184C168.554 275.022 171.752 278.519 177.139 278.519C182.975 278.519 186.838 274.32 191.514 274.32C196.238 274.32 200.113 278.519 205.89 278.519C211.164 278.519 214.47 275.026 214.47 269.192C214.369 256.236 201.01 235.693 191.514 235.693ZM173.91 233.585C172.669 227.794 168.827 224.03 165.344 225.201C161.861 226.372 160.048 232.013 161.288 237.801C162.529 243.606 166.371 247.37 169.854 246.199C173.337 245.028 175.141 239.374 173.91 233.585ZM184.039 230.106C187.731 228.747 189.585 221.892 188.166 214.486C186.746 207.081 182.604 202.592 178.898 203.802C175.206 205.161 173.352 212.016 174.772 219.421C176.194 226.677 180.332 231.478 184.039 230.106ZM217.694 225.204C214.212 224.184 210.369 227.797 209.129 233.589C207.888 239.382 209.697 245.026 213.179 246.197C216.662 247.218 220.489 243.604 221.745 237.813C222.98 232.013 221.067 226.375 217.694 225.204ZM198.989 230.106C202.589 231.465 206.837 226.677 208.257 219.421C209.676 212.166 207.823 205.16 204.131 203.802C200.531 202.443 196.283 207.231 194.863 214.486C193.44 221.742 195.294 228.751 198.989 230.106Z" fill="#FF0000" fill-opacity="0.4"/>
<path d="M710.392 416.306C700.899 416.306 687.537 436.832 687.537 449.796C687.432 455.635 690.63 459.131 696.016 459.131C701.853 459.131 705.716 454.932 710.392 454.932C715.116 454.932 718.991 459.131 724.768 459.131C730.042 459.131 733.347 455.638 733.347 449.805C733.247 436.848 719.888 416.306 710.392 416.306ZM692.787 414.198C691.547 408.406 687.704 404.642 684.222 405.813C680.739 406.984 678.925 412.625 680.166 418.413C681.406 424.218 685.249 427.982 688.732 426.811C692.214 425.64 694.019 419.986 692.787 414.198ZM702.917 410.718C706.609 409.359 708.463 402.505 707.043 395.099C705.624 387.693 701.482 383.205 697.776 384.414C694.084 385.773 692.23 392.628 693.649 400.034C695.071 407.289 699.21 412.09 702.917 410.718ZM736.572 405.817C733.089 404.796 729.246 408.41 728.006 414.201C726.766 419.994 728.574 425.638 732.057 426.809C735.54 427.83 739.367 424.217 740.623 418.425C741.858 412.625 739.944 406.988 736.572 405.817ZM717.867 410.718C721.467 412.077 725.715 407.289 727.134 400.034C728.554 392.779 726.701 385.773 723.008 384.414C719.408 383.055 715.16 387.844 713.741 395.099C712.317 402.354 714.171 409.363 717.867 410.718Z" fill="#FF0000" fill-opacity="0.4"/>
<path d="M1171.11 105.591C1161.61 105.591 1148.25 126.117 1148.25 139.082C1148.15 144.92 1151.34 148.416 1156.73 148.416C1162.57 148.416 1166.43 144.218 1171.11 144.218C1175.83 144.218 1179.71 148.416 1185.48 148.416C1190.76 148.416 1194.06 144.924 1194.06 139.09C1193.96 126.134 1180.6 105.591 1171.11 105.591ZM1153.5 103.483C1152.26 97.692 1148.42 93.9281 1144.94 95.0991C1141.45 96.2701 1139.64 101.911 1140.88 107.699C1142.12 113.504 1145.96 117.268 1149.45 116.097C1152.93 114.926 1154.73 109.272 1153.5 103.483ZM1163.63 100.004C1167.32 98.6447 1169.18 91.7902 1167.76 84.3844C1166.34 76.9787 1162.2 72.4904 1158.49 73.6999C1154.8 75.0591 1152.94 81.9136 1154.36 89.3193C1155.79 96.5745 1159.92 101.376 1163.63 100.004ZM1197.29 95.1024C1193.8 94.082 1189.96 97.6954 1188.72 103.487C1187.48 109.28 1189.29 114.924 1192.77 116.095C1196.25 117.116 1200.08 113.502 1201.34 107.711C1202.57 101.911 1200.66 96.2734 1197.29 95.1024ZM1178.58 100.004C1182.18 101.363 1186.43 96.5745 1187.85 89.3193C1189.27 82.0642 1187.42 75.0582 1183.72 73.6999C1180.12 72.3407 1175.87 77.1292 1174.45 84.3844C1173.03 91.6396 1174.89 98.6489 1178.58 100.004Z" fill="#FF0000" fill-opacity="0.4"/>
<path d="M972.127 955.081C962.634 955.081 949.272 975.607 949.272 988.572C949.166 994.41 952.364 997.906 957.751 997.906C963.587 997.906 967.45 993.707 972.127 993.707C976.851 993.707 980.726 997.906 986.502 997.906C991.777 997.906 995.082 994.413 995.082 988.58C994.982 975.624 981.623 955.081 972.127 955.081ZM954.522 952.973C953.282 947.182 949.439 943.418 945.956 944.589C942.474 945.76 940.66 951.401 941.901 957.189C943.141 962.994 946.984 966.758 950.466 965.587C953.949 964.416 955.754 958.761 954.522 952.973ZM964.652 949.494C968.344 948.134 970.198 941.28 968.778 933.874C967.358 926.468 963.217 921.98 959.51 923.19C955.818 924.549 953.965 931.403 955.384 938.809C956.806 946.064 960.944 950.865 964.652 949.494ZM998.307 944.592C994.824 943.572 990.981 947.185 989.741 952.977C988.501 958.77 990.309 964.414 993.792 965.585C997.274 966.605 1001.1 962.992 1002.36 957.201C1003.59 951.401 1001.68 945.763 998.307 944.592ZM979.602 949.494C983.201 950.853 987.449 946.064 988.869 938.809C990.289 931.554 988.436 924.548 984.743 923.19C981.143 921.83 976.895 926.619 975.475 933.874C974.052 941.129 975.906 948.139 979.602 949.494Z" fill="#FF0000" fill-opacity="0.4"/>
<path d="M160.902 700.999C151.41 700.999 138.047 721.525 138.047 734.49C137.942 740.328 141.14 743.825 146.526 743.825C152.363 743.825 156.226 739.626 160.902 739.626C165.626 739.626 169.501 743.825 175.278 743.825C180.552 743.825 183.858 740.332 183.858 734.498C183.757 721.542 170.398 700.999 160.902 700.999ZM143.297 698.892C142.057 693.1 138.214 689.336 134.732 690.507C131.249 691.678 129.435 697.319 130.676 703.107C131.916 708.912 135.759 712.676 139.242 711.505C142.724 710.334 144.529 704.68 143.297 698.892ZM153.427 695.412C157.119 694.053 158.973 687.198 157.553 679.793C156.134 672.387 151.992 667.899 148.286 669.108C144.594 670.467 142.74 677.322 144.16 684.728C145.582 691.983 149.72 696.784 153.427 695.412ZM187.082 690.511C183.599 689.49 179.757 693.104 178.516 698.895C177.276 704.688 179.085 710.332 182.567 711.503C186.05 712.524 189.877 708.91 191.133 703.119C192.368 697.319 190.455 691.682 187.082 690.511ZM168.377 695.412C171.977 696.771 176.225 691.983 177.645 684.728C179.064 677.472 177.211 670.466 173.518 669.108C169.919 667.749 165.67 672.537 164.251 679.793C162.828 687.048 164.681 694.057 168.377 695.412Z" fill="#FF0000" fill-opacity="0.4"/>
<path d="M468.555 341.306C459.063 341.306 445.7 361.832 445.7 374.796C445.595 380.635 448.793 384.131 454.18 384.131C460.016 384.131 463.879 379.932 468.555 379.932C473.279 379.932 477.154 384.131 482.931 384.131C488.205 384.131 491.511 380.638 491.511 374.805C491.41 361.848 478.051 341.306 468.555 341.306ZM450.95 339.198C449.71 333.406 445.868 329.642 442.385 330.813C438.902 331.984 437.089 337.625 438.329 343.413C439.569 349.218 443.412 352.982 446.895 351.811C450.378 350.64 452.182 344.986 450.95 339.198ZM461.08 335.718C464.772 334.359 466.626 327.505 465.206 320.099C463.787 312.693 459.645 308.205 455.939 309.414C452.247 310.773 450.393 317.628 451.813 325.034C453.235 332.289 457.373 337.09 461.08 335.718ZM494.735 330.817C491.252 329.796 487.41 333.41 486.17 339.201C484.929 344.994 486.738 350.638 490.22 351.809C493.703 352.83 497.53 349.217 498.786 343.425C500.021 337.625 498.108 331.988 494.735 330.817ZM476.03 335.718C479.63 337.077 483.878 332.289 485.298 325.034C486.717 317.779 484.864 310.773 481.172 309.414C477.572 308.055 473.324 312.844 471.904 320.099C470.481 327.354 472.334 334.363 476.03 335.718Z" fill="#FF0000" fill-opacity="0.4"/>
<g clip-path="url(#clip0_218_57)">
<path d="M318.71 311.294C318.912 310.076 319.965 309.184 321.198 309.184C321.995 309.184 322.739 309.558 323.217 310.194L325.014 312.585H330.551C331.901 312.585 333.209 313.123 334.165 314.079L336.068 315.986H342.02C343.434 315.986 344.571 317.129 344.571 318.537V321.088C344.571 325.786 340.766 329.592 336.068 329.592H328.702L328.16 332.834L316.255 326.031L318.71 311.294ZM330.966 315.986C330.031 315.986 329.265 316.747 329.265 317.687C329.265 318.627 330.031 319.388 330.966 319.388C331.901 319.388 332.667 318.627 332.667 317.687C332.667 316.747 331.901 315.986 330.966 315.986ZM327.565 336.405V360.204C327.565 362.085 326.045 363.605 324.163 363.605H320.762C318.881 363.605 317.361 362.085 317.361 360.204V347.959C314.714 349.267 311.918 350 308.857 350C305.796 350 302.905 349.267 300.354 347.959V360.204C300.354 362.085 298.834 363.605 296.952 363.605H293.551C291.673 363.605 290.15 362.085 290.15 360.204V335.735C287.092 334.577 284.691 331.983 283.861 328.667L283.449 327.019C282.993 325.191 284.101 323.342 285.924 322.8C287.745 322.438 289.593 323.544 290.049 325.361L290.461 327.019C290.84 328.529 292.2 329.496 293.76 329.496H315.639L327.565 336.405Z" fill="#FF0000" fill-opacity="0.4"/>
</g>
<g clip-path="url(#clip1_218_57)">
<path d="M915.649 311.294C915.851 310.076 916.903 309.184 918.136 309.184C918.934 309.184 919.678 309.558 920.156 310.194L921.952 312.585H927.49C928.84 312.585 930.147 313.123 931.104 314.079L933.007 315.986H938.959C940.373 315.986 941.51 317.129 941.51 318.537V321.088C941.51 325.786 937.705 329.592 933.007 329.592H925.641L925.099 332.834L913.194 326.031L915.649 311.294ZM927.905 315.986C926.969 315.986 926.204 316.747 926.204 317.687C926.204 318.627 926.969 319.388 927.905 319.388C928.84 319.388 929.605 318.627 929.605 317.687C929.605 316.747 928.84 315.986 927.905 315.986ZM924.503 336.405V360.204C924.503 362.085 922.983 363.605 921.102 363.605H917.701C915.819 363.605 914.299 362.085 914.299 360.204V347.959C911.653 349.267 908.857 350 905.796 350C902.735 350 899.844 349.267 897.292 347.959V360.204C897.292 362.085 895.773 363.605 893.891 363.605H890.49C888.612 363.605 887.088 362.085 887.088 360.204V335.735C884.03 334.577 881.629 331.983 880.8 328.667L880.387 327.019C879.932 325.191 881.04 323.342 882.862 322.8C884.684 322.438 886.531 323.544 886.987 325.361L887.4 327.019C887.778 328.529 889.139 329.496 890.699 329.496H912.577L924.503 336.405Z" fill="#FF0000" fill-opacity="0.4"/>
</g>
<g clip-path="url(#clip2_218_57)">
<path d="M1237.08 214.865C1237.28 213.647 1238.33 212.755 1239.57 212.755C1240.36 212.755 1241.11 213.129 1241.58 213.765L1243.38 216.156H1248.92C1250.27 216.156 1251.58 216.694 1252.53 217.651L1254.44 219.558H1260.39C1261.8 219.558 1262.94 220.7 1262.94 222.109V224.66C1262.94 229.358 1259.13 233.163 1254.44 233.163H1247.07L1246.53 236.405L1234.62 229.602L1237.08 214.865ZM1249.33 219.558C1248.4 219.558 1247.63 220.319 1247.63 221.258C1247.63 222.198 1248.4 222.959 1249.33 222.959C1250.27 222.959 1251.03 222.198 1251.03 221.258C1251.03 220.319 1250.27 219.558 1249.33 219.558ZM1245.93 239.976V263.775C1245.93 265.657 1244.41 267.177 1242.53 267.177H1239.13C1237.25 267.177 1235.73 265.657 1235.73 263.775V251.53C1233.08 252.838 1230.29 253.571 1227.22 253.571C1224.16 253.571 1221.27 252.838 1218.72 251.53V263.775C1218.72 265.657 1217.2 267.177 1215.32 267.177H1211.92C1210.04 267.177 1208.52 265.657 1208.52 263.775V239.307C1205.46 238.148 1203.06 235.555 1202.23 232.238L1201.82 230.591C1201.36 228.763 1202.47 226.913 1204.29 226.371C1206.11 226.01 1207.96 227.115 1208.42 228.933L1208.83 230.591C1209.21 232.1 1210.57 233.067 1212.13 233.067H1234.01L1245.93 239.976Z" fill="#FF0000" fill-opacity="0.4"/>
</g>
<g clip-path="url(#clip3_218_57)">
<path d="M1175.85 559.253C1176.06 558.035 1177.11 557.143 1178.34 557.143C1179.14 557.143 1179.88 557.517 1180.36 558.153L1182.16 560.544H1187.69C1189.04 560.544 1190.35 561.082 1191.31 562.039L1193.21 563.946H1199.16C1200.58 563.946 1201.71 565.088 1201.71 566.497V569.048C1201.71 573.746 1197.91 577.551 1193.21 577.551H1185.84L1185.3 580.793L1173.4 573.99L1175.85 559.253ZM1188.11 563.946C1187.17 563.946 1186.41 564.707 1186.41 565.646C1186.41 566.586 1187.17 567.347 1188.11 567.347C1189.04 567.347 1189.81 566.586 1189.81 565.646C1189.81 564.707 1189.04 563.946 1188.11 563.946ZM1184.71 584.365V608.163C1184.71 610.045 1183.19 611.565 1181.31 611.565H1177.9C1176.02 611.565 1174.5 610.045 1174.5 608.163V595.919C1171.86 597.226 1169.06 597.959 1166 597.959C1162.94 597.959 1160.05 597.226 1157.5 595.919V608.163C1157.5 610.045 1155.98 611.565 1154.1 611.565H1150.69C1148.82 611.565 1147.29 610.045 1147.29 608.163V583.695C1144.23 582.536 1141.83 579.943 1141 576.626L1140.59 574.979C1140.14 573.151 1141.24 571.301 1143.07 570.759C1144.89 570.398 1146.74 571.503 1147.19 573.321L1147.6 574.979C1147.98 576.488 1149.34 577.456 1150.9 577.456H1172.78L1184.71 584.365Z" fill="#FF0000" fill-opacity="0.4"/>
</g>
<g clip-path="url(#clip4_218_57)">
<path d="M915.649 63.3345C915.851 62.1169 916.903 61.2246 918.136 61.2246C918.934 61.2246 919.678 61.5988 920.156 62.2346L921.952 64.626H927.49C928.84 64.626 930.147 65.1638 931.104 66.1204L933.007 68.0273H938.959C940.373 68.0273 941.51 69.17 941.51 70.5784V73.1294C941.51 77.8275 937.705 81.6328 933.007 81.6328H925.641L925.099 84.8747L913.194 78.072L915.649 63.3345ZM927.905 68.0273C926.969 68.0273 926.204 68.7884 926.204 69.728C926.204 70.6676 926.969 71.4287 927.905 71.4287C928.84 71.4287 929.605 70.6676 929.605 69.728C929.605 68.7884 928.84 68.0273 927.905 68.0273ZM924.503 88.4461V112.245C924.503 114.126 922.983 115.646 921.102 115.646H917.701C915.819 115.646 914.299 114.126 914.299 112.245V100C911.653 101.308 908.857 102.041 905.796 102.041C902.735 102.041 899.844 101.308 897.292 100V112.245C897.292 114.126 895.773 115.646 893.891 115.646H890.49C888.612 115.646 887.088 114.126 887.088 112.245V87.7765C884.03 86.6179 881.629 84.0244 880.8 80.708L880.387 79.0605C879.932 77.2323 881.04 75.3828 882.862 74.8407C884.684 74.4793 886.531 75.5847 886.987 77.4023L887.4 79.0605C887.778 80.5698 889.139 81.5371 890.699 81.5371H912.577L924.503 88.4461Z" fill="#FF0000" fill-opacity="0.4"/>
</g>
<g clip-path="url(#clip5_218_57)">
<path d="M776.364 643.437C776.566 642.219 777.618 641.327 778.851 641.327C779.648 641.327 780.392 641.701 780.87 642.337L782.667 644.728H788.205C789.554 644.728 790.862 645.266 791.818 646.222L793.721 648.129H799.673C801.087 648.129 802.225 649.272 802.225 650.68V653.231C802.225 657.93 798.419 661.735 793.721 661.735H786.355L785.813 664.977L773.908 658.174L776.364 643.437ZM788.619 648.129C787.684 648.129 786.918 648.89 786.918 649.83C786.918 650.77 787.684 651.531 788.619 651.531C789.554 651.531 790.32 650.77 790.32 649.83C790.32 648.89 789.554 648.129 788.619 648.129ZM785.218 668.548V692.347C785.218 694.228 783.698 695.748 781.816 695.748H778.415C776.534 695.748 775.014 694.228 775.014 692.347V680.102C772.367 681.41 769.571 682.143 766.51 682.143C763.449 682.143 760.558 681.41 758.007 680.102V692.347C758.007 694.228 756.487 695.748 754.605 695.748H751.204C749.326 695.748 747.803 694.228 747.803 692.347V667.879C744.745 666.72 742.344 664.126 741.514 660.81L741.102 659.163C740.646 657.334 741.754 655.485 743.577 654.943C745.398 654.581 747.246 655.687 747.702 657.504L748.114 659.163C748.493 660.672 749.853 661.639 751.414 661.639H773.292L785.218 668.548Z" fill="#FF0000" fill-opacity="0.4"/>
</g>
<g clip-path="url(#clip6_218_57)">
<path d="M1191.16 984.763C1191.36 983.545 1192.41 982.653 1193.65 982.653C1194.44 982.653 1195.19 983.027 1195.67 983.663L1197.46 986.054H1203C1204.35 986.054 1205.66 986.592 1206.61 987.549L1208.52 989.456H1214.47C1215.88 989.456 1217.02 990.598 1217.02 992.007V994.558C1217.02 999.256 1213.22 1003.06 1208.52 1003.06H1201.15L1200.61 1006.3L1188.7 999.5L1191.16 984.763ZM1203.41 989.456C1202.48 989.456 1201.71 990.217 1201.71 991.156C1201.71 992.096 1202.48 992.857 1203.41 992.857C1204.35 992.857 1205.12 992.096 1205.12 991.156C1205.12 990.217 1204.35 989.456 1203.41 989.456ZM1200.01 1009.87V1033.67C1200.01 1035.55 1198.49 1037.07 1196.61 1037.07H1193.21C1191.33 1037.07 1189.81 1035.55 1189.81 1033.67V1021.43C1187.16 1022.74 1184.37 1023.47 1181.31 1023.47C1178.24 1023.47 1175.35 1022.74 1172.8 1021.43V1033.67C1172.8 1035.55 1171.28 1037.07 1169.4 1037.07H1166C1164.12 1037.07 1162.6 1035.55 1162.6 1033.67V1009.2C1159.54 1008.05 1157.14 1005.45 1156.31 1002.14L1155.9 1000.49C1155.44 998.66 1156.55 996.811 1158.37 996.269C1160.19 995.908 1162.04 997.013 1162.5 998.831L1162.91 1000.49C1163.29 1002 1164.65 1002.97 1166.21 1002.97H1188.09L1200.01 1009.87Z" fill="#FF0000" fill-opacity="0.4"/>
</g>
<g clip-path="url(#clip7_218_57)">
<path d="M601.874 984.763C602.076 983.545 603.128 982.653 604.361 982.653C605.158 982.653 605.902 983.027 606.381 983.663L608.177 986.054H613.715C615.065 986.054 616.372 986.592 617.329 987.549L619.231 989.456H625.184C626.597 989.456 627.735 990.598 627.735 992.007V994.558C627.735 999.256 623.929 1003.06 619.231 1003.06H611.865L611.323 1006.3L599.418 999.5L601.874 984.763ZM614.129 989.456C613.194 989.456 612.429 990.217 612.429 991.156C612.429 992.096 613.194 992.857 614.129 992.857C615.065 992.857 615.83 992.096 615.83 991.156C615.83 990.217 615.065 989.456 614.129 989.456ZM610.728 1009.87V1033.67C610.728 1035.55 609.208 1037.07 607.327 1037.07H603.925C602.044 1037.07 600.524 1035.55 600.524 1033.67V1021.43C597.877 1022.74 595.082 1023.47 592.02 1023.47C588.959 1023.47 586.068 1022.74 583.517 1021.43V1033.67C583.517 1035.55 581.997 1037.07 580.116 1037.07H576.714C574.836 1037.07 573.313 1035.55 573.313 1033.67V1009.2C570.255 1008.05 567.854 1005.45 567.024 1002.14L566.612 1000.49C566.156 998.66 567.264 996.811 569.087 996.269C570.909 995.908 572.756 997.013 573.212 998.831L573.624 1000.49C574.003 1002 575.363 1002.97 576.924 1002.97H598.802L610.728 1009.87Z" fill="#FF0000" fill-opacity="0.4"/>
</g>
<g clip-path="url(#clip8_218_57)">
<path d="M349.323 1039.86C349.525 1038.65 350.577 1037.75 351.81 1037.75C352.607 1037.75 353.351 1038.13 353.83 1038.76L355.626 1041.16H361.164C362.514 1041.16 363.821 1041.69 364.778 1042.65L366.68 1044.56H372.633C374.046 1044.56 375.184 1045.7 375.184 1047.11V1049.66C375.184 1054.36 371.378 1058.16 366.68 1058.16H359.314L358.772 1061.4L346.867 1054.6L349.323 1039.86ZM361.578 1044.56C360.643 1044.56 359.878 1045.32 359.878 1046.26C359.878 1047.2 360.643 1047.96 361.578 1047.96C362.514 1047.96 363.279 1047.2 363.279 1046.26C363.279 1045.32 362.514 1044.56 361.578 1044.56ZM358.177 1064.98V1088.78C358.177 1090.66 356.657 1092.18 354.776 1092.18H351.374C349.493 1092.18 347.973 1090.66 347.973 1088.78V1076.53C345.326 1077.84 342.531 1078.57 339.469 1078.57C336.408 1078.57 333.517 1077.84 330.966 1076.53V1088.78C330.966 1090.66 329.446 1092.18 327.565 1092.18H324.163C322.285 1092.18 320.762 1090.66 320.762 1088.78V1064.31C317.704 1063.15 315.303 1060.55 314.473 1057.24L314.061 1055.59C313.605 1053.76 314.713 1051.91 316.536 1051.37C318.358 1051.01 320.205 1052.12 320.661 1053.93L321.073 1055.59C321.452 1057.1 322.812 1058.07 324.373 1058.07H346.251L358.177 1064.98Z" fill="#FF0000" fill-opacity="0.4"/>
</g>
<g clip-path="url(#clip9_218_57)">
<path d="M1038.1 1039.86C1038.3 1038.65 1039.35 1037.75 1040.59 1037.75C1041.38 1037.75 1042.13 1038.13 1042.6 1038.76L1044.4 1041.16H1049.94C1051.29 1041.16 1052.6 1041.69 1053.55 1042.65L1055.46 1044.56H1061.41C1062.82 1044.56 1063.96 1045.7 1063.96 1047.11V1049.66C1063.96 1054.36 1060.15 1058.16 1055.46 1058.16H1048.09L1047.55 1061.4L1035.64 1054.6L1038.1 1039.86ZM1050.35 1044.56C1049.42 1044.56 1048.65 1045.32 1048.65 1046.26C1048.65 1047.2 1049.42 1047.96 1050.35 1047.96C1051.29 1047.96 1052.05 1047.2 1052.05 1046.26C1052.05 1045.32 1051.29 1044.56 1050.35 1044.56ZM1046.95 1064.98V1088.78C1046.95 1090.66 1045.43 1092.18 1043.55 1092.18H1040.15C1038.27 1092.18 1036.75 1090.66 1036.75 1088.78V1076.53C1034.1 1077.84 1031.31 1078.57 1028.24 1078.57C1025.18 1078.57 1022.29 1077.84 1019.74 1076.53V1088.78C1019.74 1090.66 1018.22 1092.18 1016.34 1092.18H1012.94C1011.06 1092.18 1009.54 1090.66 1009.54 1088.78V1064.31C1006.48 1063.15 1004.08 1060.55 1003.25 1057.24L1002.84 1055.59C1002.38 1053.76 1003.49 1051.91 1005.31 1051.37C1007.13 1051.01 1008.98 1052.12 1009.44 1053.93L1009.85 1055.59C1010.23 1057.1 1011.59 1058.07 1013.15 1058.07H1035.03L1046.95 1064.98Z" fill="#FF0000" fill-opacity="0.4"/>
</g>
<g clip-path="url(#clip10_218_57)">
<path d="M1038.1 406.191C1038.3 404.974 1039.35 404.082 1040.59 404.082C1041.38 404.082 1042.13 404.456 1042.61 405.092L1044.4 407.483H1049.94C1051.29 407.483 1052.6 408.021 1053.55 408.977L1055.46 410.884H1061.41C1062.82 410.884 1063.96 412.027 1063.96 413.435V415.986C1063.96 420.684 1060.15 424.49 1055.46 424.49H1048.09L1047.55 427.732L1035.64 420.929L1038.1 406.191ZM1050.35 410.884C1049.42 410.884 1048.65 411.645 1048.65 412.585C1048.65 413.525 1049.42 414.286 1050.35 414.286C1051.29 414.286 1052.05 413.525 1052.05 412.585C1052.05 411.645 1051.29 410.884 1050.35 410.884ZM1046.95 431.303V455.102C1046.95 456.983 1045.43 458.503 1043.55 458.503H1040.15C1038.27 458.503 1036.75 456.983 1036.75 455.102V442.857C1034.1 444.164 1031.31 444.898 1028.24 444.898C1025.18 444.898 1022.29 444.164 1019.74 442.857V455.102C1019.74 456.983 1018.22 458.503 1016.34 458.503H1012.94C1011.06 458.503 1009.54 456.983 1009.54 455.102V430.633C1006.48 429.475 1004.08 426.881 1003.25 423.565L1002.84 421.917C1002.38 420.089 1003.49 418.24 1005.31 417.698C1007.13 417.336 1008.98 418.442 1009.44 420.259L1009.85 421.917C1010.23 423.427 1011.59 424.394 1013.15 424.394H1035.03L1046.95 431.303Z" fill="#FF0000" fill-opacity="0.4"/>
</g>
<g clip-path="url(#clip11_218_57)">
<path d="M1028.91 123.028C1029.12 121.811 1030.17 120.918 1031.4 120.918C1032.2 120.918 1032.94 121.293 1033.42 121.928L1035.22 124.32H1040.76C1042.11 124.32 1043.41 124.858 1044.37 125.814L1046.27 127.721H1052.22C1053.64 127.721 1054.78 128.864 1054.78 130.272V132.823C1054.78 137.521 1050.97 141.327 1046.27 141.327H1038.91L1038.36 144.569L1026.46 137.766L1028.91 123.028ZM1041.17 127.721C1040.23 127.721 1039.47 128.482 1039.47 129.422C1039.47 130.361 1040.23 131.123 1041.17 131.123C1042.11 131.123 1042.87 130.361 1042.87 129.422C1042.87 128.482 1042.11 127.721 1041.17 127.721ZM1037.77 148.14V171.939C1037.77 173.82 1036.25 175.34 1034.37 175.34H1030.97C1029.08 175.34 1027.56 173.82 1027.56 171.939V159.694C1024.92 161.001 1022.12 161.735 1019.06 161.735C1016 161.735 1013.11 161.001 1010.56 159.694V171.939C1010.56 173.82 1009.04 175.34 1007.16 175.34H1003.76C1001.88 175.34 1000.35 173.82 1000.35 171.939V147.47C997.296 146.312 994.895 143.718 994.065 140.402L993.653 138.754C993.197 136.926 994.305 135.077 996.128 134.535C997.949 134.173 999.797 135.279 1000.25 137.096L1000.67 138.754C1001.04 140.264 1002.4 141.231 1003.96 141.231H1025.84L1037.77 148.14Z" fill="#FF0000" fill-opacity="0.4"/>
</g>
<g clip-path="url(#clip12_218_57)">
<path d="M349.323 727.62C349.525 726.403 350.577 725.51 351.81 725.51C352.607 725.51 353.351 725.884 353.83 726.52L355.626 728.912H361.164C362.514 728.912 363.821 729.449 364.778 730.406L366.68 732.313H372.633C374.046 732.313 375.184 733.456 375.184 734.864V737.415C375.184 742.113 371.378 745.918 366.68 745.918H359.314L358.772 749.16L346.867 742.358L349.323 727.62ZM361.578 732.313C360.643 732.313 359.878 733.074 359.878 734.014C359.878 734.953 360.643 735.714 361.578 735.714C362.514 735.714 363.279 734.953 363.279 734.014C363.279 733.074 362.514 732.313 361.578 732.313ZM358.177 752.732V776.531C358.177 778.412 356.657 779.932 354.776 779.932H351.374C349.493 779.932 347.973 778.412 347.973 776.531V764.286C345.326 765.593 342.531 766.327 339.469 766.327C336.408 766.327 333.517 765.593 330.966 764.286V776.531C330.966 778.412 329.446 779.932 327.565 779.932H324.163C322.285 779.932 320.762 778.412 320.762 776.531V752.062C317.704 750.904 315.303 748.31 314.473 744.994L314.061 743.346C313.605 741.518 314.713 739.668 316.536 739.126C318.358 738.765 320.205 739.87 320.661 741.688L321.073 743.346C321.452 744.855 322.812 745.823 324.373 745.823H346.251L358.177 752.732Z" fill="#FF0000" fill-opacity="0.4"/>
</g>
<g clip-path="url(#clip13_218_57)">
<path d="M125.853 348.028C126.055 346.811 127.108 345.918 128.341 345.918C129.138 345.918 129.882 346.293 130.36 346.928L132.156 349.32H137.694C139.044 349.32 140.352 349.858 141.308 350.814L143.211 352.721H149.163C150.577 352.721 151.714 353.864 151.714 355.272V357.823C151.714 362.521 147.909 366.327 143.211 366.327H135.845L135.303 369.569L123.398 362.766L125.853 348.028ZM138.109 352.721C137.173 352.721 136.408 353.482 136.408 354.422C136.408 355.361 137.173 356.123 138.109 356.123C139.044 356.123 139.81 355.361 139.81 354.422C139.81 353.482 139.044 352.721 138.109 352.721ZM134.707 373.14V396.939C134.707 398.82 133.187 400.34 131.306 400.34H127.905C126.023 400.34 124.503 398.82 124.503 396.939V384.694C121.857 386.001 119.061 386.735 116 386.735C112.939 386.735 110.048 386.001 107.497 384.694V396.939C107.497 398.82 105.977 400.34 104.095 400.34H100.694C98.8157 400.34 97.2925 398.82 97.2925 396.939V372.47C94.2345 371.312 91.8333 368.718 91.0038 365.402L90.5914 363.754C90.1357 361.926 91.2438 360.077 93.0663 359.535C94.8882 359.173 96.7355 360.279 97.1915 362.096L97.6039 363.754C97.9824 365.264 99.3429 366.231 100.903 366.231H122.781L134.707 373.14Z" fill="#FF0000" fill-opacity="0.4"/>
</g>
<g clip-path="url(#clip14_218_57)">
<path d="M349.323 46.4976C349.525 45.28 350.577 44.3877 351.81 44.3877C352.607 44.3877 353.351 44.7618 353.829 45.3977L355.626 47.7891H361.164C362.514 47.7891 363.821 48.3269 364.778 49.2835L366.68 51.1904H372.633C374.046 51.1904 375.184 52.3331 375.184 53.7414V56.2925C375.184 60.9906 371.378 64.7959 366.68 64.7959H359.314L358.772 68.0378L346.867 61.2351L349.323 46.4976ZM361.578 51.1904C360.643 51.1904 359.878 51.9515 359.878 52.8911C359.878 53.8307 360.643 54.5918 361.578 54.5918C362.514 54.5918 363.279 53.8307 363.279 52.8911C363.279 51.9515 362.514 51.1904 361.578 51.1904ZM358.177 71.6092V95.4081C358.177 97.2895 356.657 98.8095 354.775 98.8095H351.374C349.493 98.8095 347.973 97.2895 347.973 95.4081V83.1632C345.326 84.4706 342.531 85.204 339.469 85.204C336.408 85.204 333.517 84.4706 330.966 83.1632V95.4081C330.966 97.2895 329.446 98.8095 327.565 98.8095H324.163C322.285 98.8095 320.762 97.2895 320.762 95.4081V70.9396C317.704 69.781 315.303 67.1874 314.473 63.8711L314.061 62.2236C313.605 60.3953 314.713 58.5459 316.536 58.0038C318.358 57.6424 320.205 58.7478 320.661 60.5654L321.073 62.2236C321.452 63.7329 322.812 64.7002 324.373 64.7002H346.251L358.177 71.6092Z" fill="#FF0000" fill-opacity="0.4"/>
</g>
<g clip-path="url(#clip15_218_57)">
<path d="M653.915 57.212C654.116 55.9944 655.169 55.1021 656.402 55.1021C657.199 55.1021 657.943 55.4762 658.421 56.112L660.218 58.5034H665.756C667.105 58.5034 668.413 59.0413 669.369 59.9979L671.272 61.9048H677.224C678.638 61.9048 679.775 63.0474 679.775 64.4558V67.0068C679.775 71.7049 675.97 75.5102 671.272 75.5102H663.906L663.364 78.7521L651.459 71.9494L653.915 57.212ZM666.17 61.9048C665.235 61.9048 664.469 62.6658 664.469 63.6055C664.469 64.5451 665.235 65.3061 666.17 65.3061C667.105 65.3061 667.871 64.5451 667.871 63.6055C667.871 62.6658 667.105 61.9048 666.17 61.9048ZM662.769 82.3236V106.122C662.769 108.004 661.249 109.524 659.367 109.524H655.966C654.085 109.524 652.565 108.004 652.565 106.122V93.8776C649.918 95.185 647.122 95.9184 644.061 95.9184C641 95.9184 638.109 95.185 635.558 93.8776V106.122C635.558 108.004 634.038 109.524 632.156 109.524H628.755C626.877 109.524 625.354 108.004 625.354 106.122V81.6539C622.296 80.4953 619.895 77.9018 619.065 74.5855L618.653 72.9379C618.197 71.1097 619.305 69.2602 621.128 68.7181C622.949 68.3567 624.797 69.4622 625.253 71.2798L625.665 72.9379C626.044 74.4473 627.404 75.4146 628.964 75.4146H650.843L662.769 82.3236Z" fill="#FF0000" fill-opacity="0.4"/>
</g>
<g clip-path="url(#clip16_218_57)">
<path d="M653.915 540.885C654.116 539.668 655.169 538.775 656.402 538.775C657.199 538.775 657.943 539.15 658.421 539.785L660.218 542.177H665.756C667.105 542.177 668.413 542.715 669.369 543.671L671.272 545.578H677.224C678.638 545.578 679.775 546.721 679.775 548.129V550.68C679.775 555.378 675.97 559.184 671.272 559.184H663.906L663.364 562.425L651.459 555.623L653.915 540.885ZM666.17 545.578C665.235 545.578 664.469 546.339 664.469 547.279C664.469 548.218 665.235 548.979 666.17 548.979C667.105 548.979 667.871 548.218 667.871 547.279C667.871 546.339 667.105 545.578 666.17 545.578ZM662.769 565.997V589.796C662.769 591.677 661.249 593.197 659.367 593.197H655.966C654.085 593.197 652.565 591.677 652.565 589.796V577.551C649.918 578.858 647.122 579.592 644.061 579.592C641 579.592 638.109 578.858 635.558 577.551V589.796C635.558 591.677 634.038 593.197 632.156 593.197H628.755C626.877 593.197 625.354 591.677 625.354 589.796V565.327C622.296 564.169 619.895 561.575 619.065 558.259L618.653 556.611C618.197 554.783 619.305 552.934 621.128 552.391C622.949 552.03 624.797 553.136 625.253 554.953L625.665 556.611C626.044 558.121 627.404 559.088 628.964 559.088H650.843L662.769 565.997Z" fill="#FF0000" fill-opacity="0.4"/>
</g>
<g clip-path="url(#clip17_218_57)">
<path d="M581.363 375.11C581.565 373.892 582.618 373 583.851 373C584.648 373 585.392 373.374 585.87 374.01L587.667 376.401H593.204C594.554 376.401 595.862 376.939 596.818 377.896L598.721 379.803H604.673C606.087 379.803 607.224 380.945 607.224 382.354V384.905C607.224 389.603 603.419 393.408 598.721 393.408H591.355L590.813 396.65L578.908 389.847L581.363 375.11ZM593.619 379.803C592.684 379.803 591.918 380.564 591.918 381.503C591.918 382.443 592.684 383.204 593.619 383.204C594.554 383.204 595.32 382.443 595.32 381.503C595.32 380.564 594.554 379.803 593.619 379.803ZM590.218 400.222V424.02C590.218 425.902 588.698 427.422 586.816 427.422H583.415C581.534 427.422 580.014 425.902 580.014 424.02V411.776C577.367 413.083 574.571 413.816 571.51 413.816C568.449 413.816 565.558 413.083 563.007 411.776V424.02C563.007 425.902 561.487 427.422 559.605 427.422H556.204C554.326 427.422 552.803 425.902 552.803 424.02V399.552C549.745 398.393 547.344 395.8 546.514 392.483L546.102 390.836C545.646 389.008 546.754 387.158 548.577 386.616C550.398 386.255 552.246 387.36 552.702 389.178L553.114 390.836C553.493 392.345 554.853 393.313 556.413 393.313H578.292L590.218 400.222Z" fill="#FF0000" fill-opacity="0.4"/>
</g>
<g clip-path="url(#clip18_218_57)">
<path d="M550.363 57.1099C550.565 55.8923 551.618 55 552.851 55C553.648 55 554.392 55.3741 554.87 56.01L556.667 58.4014H562.204C563.554 58.4014 564.862 58.9392 565.818 59.8958L567.721 61.8027H573.673C575.087 61.8027 576.224 62.9454 576.224 64.3537V66.9048C576.224 71.6029 572.419 75.4082 567.721 75.4082H560.355L559.813 78.6501L547.908 71.8474L550.363 57.1099ZM562.619 61.8027C561.684 61.8027 560.918 62.5638 560.918 63.5034C560.918 64.443 561.684 65.2041 562.619 65.2041C563.554 65.2041 564.32 64.443 564.32 63.5034C564.32 62.5638 563.554 61.8027 562.619 61.8027ZM559.218 82.2215V106.02C559.218 107.902 557.698 109.422 555.816 109.422H552.415C550.534 109.422 549.014 107.902 549.014 106.02V93.7755C546.367 95.0829 543.571 95.8163 540.51 95.8163C537.449 95.8163 534.558 95.0829 532.007 93.7755V106.02C532.007 107.902 530.487 109.422 528.605 109.422H525.204C523.326 109.422 521.803 107.902 521.803 106.02V81.5519C518.745 80.3933 516.344 77.7997 515.514 74.4834L515.102 72.8359C514.646 71.0077 515.754 69.1582 517.577 68.6161C519.398 68.2547 521.246 69.3601 521.702 71.1777L522.114 72.8359C522.493 74.3452 523.853 75.3125 525.413 75.3125H547.292L559.218 82.2215Z" fill="#FF0000" fill-opacity="0.4"/>
</g>
<g clip-path="url(#clip19_218_57)">
<path d="M95.2411 520.987C95.443 519.77 96.4953 518.877 97.7283 518.877C98.5255 518.877 99.2695 519.252 99.7479 519.887L101.544 522.279H107.082C108.432 522.279 109.739 522.817 110.696 523.773L112.599 525.68H118.551C119.965 525.68 121.102 526.823 121.102 528.231V530.782C121.102 535.48 117.297 539.286 112.599 539.286H105.233L104.69 542.528L92.7857 535.725L95.2411 520.987ZM107.497 525.68C106.561 525.68 105.796 526.441 105.796 527.381C105.796 528.32 106.561 529.082 107.497 529.082C108.432 529.082 109.197 528.32 109.197 527.381C109.197 526.441 108.432 525.68 107.497 525.68ZM104.095 546.099V569.898C104.095 571.779 102.575 573.299 100.694 573.299H97.2925C95.4111 573.299 93.8911 571.779 93.8911 569.898V557.653C91.2445 558.96 88.449 559.694 85.3877 559.694C82.3265 559.694 79.4354 558.96 76.8843 557.653V569.898C76.8843 571.779 75.3644 573.299 73.483 573.299H70.0816C68.2034 573.299 66.6803 571.779 66.6803 569.898V545.429C63.6222 544.271 61.2211 541.677 60.3916 538.361L59.9791 536.713C59.5235 534.885 60.6316 533.036 62.4541 532.494C64.2759 532.132 66.1233 533.238 66.5793 535.055L66.9917 536.713C67.3701 538.223 68.7307 539.19 70.291 539.19H92.1692L104.095 546.099Z" fill="#FF0000" fill-opacity="0.4"/>
</g>
<g clip-path="url(#clip20_218_57)">
<path d="M95.241 984.763C95.443 983.545 96.4953 982.653 97.7283 982.653C98.5255 982.653 99.2695 983.027 99.7478 983.663L101.544 986.054H107.082C108.432 986.054 109.739 986.592 110.696 987.549L112.599 989.456H118.551C119.965 989.456 121.102 990.598 121.102 992.007V994.558C121.102 999.256 117.297 1003.06 112.599 1003.06H105.233L104.69 1006.3L92.7857 999.5L95.241 984.763ZM107.497 989.456C106.561 989.456 105.796 990.217 105.796 991.156C105.796 992.096 106.561 992.857 107.497 992.857C108.432 992.857 109.197 992.096 109.197 991.156C109.197 990.217 108.432 989.456 107.497 989.456ZM104.095 1009.87V1033.67C104.095 1035.55 102.575 1037.07 100.694 1037.07H97.2925C95.4111 1037.07 93.8911 1035.55 93.8911 1033.67V1021.43C91.2444 1022.74 88.449 1023.47 85.3877 1023.47C82.3265 1023.47 79.4354 1022.74 76.8843 1021.43V1033.67C76.8843 1035.55 75.3644 1037.07 73.483 1037.07H70.0816C68.2034 1037.07 66.6803 1035.55 66.6803 1033.67V1009.2C63.6222 1008.05 61.2211 1005.45 60.3916 1002.14L59.9791 1000.49C59.5235 998.66 60.6316 996.811 62.4541 996.269C64.2759 995.908 66.1233 997.013 66.5793 998.831L66.9917 1000.49C67.3701 1002 68.7306 1002.97 70.291 1002.97H92.1692L104.095 1009.87Z" fill="#FF0000" fill-opacity="0.4"/>
</g>
<g clip-path="url(#clip21_218_57)">
<path d="M1007.49 775.069C1007.69 773.851 1008.74 772.959 1009.97 772.959C1010.77 772.959 1011.51 773.333 1011.99 773.969L1013.79 776.36H1019.33C1020.68 776.36 1021.98 776.898 1022.94 777.855L1024.84 779.762H1030.8C1032.21 779.762 1033.35 780.904 1033.35 782.313V784.864C1033.35 789.562 1029.54 793.367 1024.84 793.367H1017.48L1016.94 796.609L1005.03 789.806L1007.49 775.069ZM1019.74 779.762C1018.81 779.762 1018.04 780.523 1018.04 781.462C1018.04 782.402 1018.81 783.163 1019.74 783.163C1020.68 783.163 1021.44 782.402 1021.44 781.462C1021.44 780.523 1020.68 779.762 1019.74 779.762ZM1016.34 800.181V823.979C1016.34 825.861 1014.82 827.381 1012.94 827.381H1009.54C1007.66 827.381 1006.14 825.861 1006.14 823.979V811.734C1003.49 813.042 1000.69 813.775 997.633 813.775C994.571 813.775 991.68 813.042 989.129 811.734V823.979C989.129 825.861 987.609 827.381 985.728 827.381H982.327C980.448 827.381 978.925 825.861 978.925 823.979V799.511C975.867 798.352 973.466 795.759 972.637 792.442L972.224 790.795C971.768 788.967 972.877 787.117 974.699 786.575C976.521 786.214 978.368 787.319 978.824 789.137L979.237 790.795C979.615 792.304 980.976 793.271 982.536 793.271H1004.41L1016.34 800.181Z" fill="#FF0000" fill-opacity="0.4"/>
</g>
<g clip-path="url(#clip22_218_57)">
<path d="M1175.85 367.926C1176.06 366.709 1177.11 365.816 1178.34 365.816C1179.14 365.816 1179.88 366.191 1180.36 366.826L1182.16 369.218H1187.69C1189.04 369.218 1190.35 369.756 1191.31 370.712L1193.21 372.619H1199.16C1200.58 372.619 1201.71 373.762 1201.71 375.17V377.721C1201.71 382.419 1197.91 386.225 1193.21 386.225H1185.84L1185.3 389.466L1173.4 382.664L1175.85 367.926ZM1188.11 372.619C1187.17 372.619 1186.41 373.38 1186.41 374.32C1186.41 375.259 1187.17 376.02 1188.11 376.02C1189.04 376.02 1189.81 375.259 1189.81 374.32C1189.81 373.38 1189.04 372.619 1188.11 372.619ZM1184.71 393.038V416.837C1184.71 418.718 1183.19 420.238 1181.31 420.238H1177.9C1176.02 420.238 1174.5 418.718 1174.5 416.837V404.592C1171.86 405.899 1169.06 406.633 1166 406.633C1162.94 406.633 1160.05 405.899 1157.5 404.592V416.837C1157.5 418.718 1155.98 420.238 1154.1 420.238H1150.69C1148.82 420.238 1147.29 418.718 1147.29 416.837V392.368C1144.23 391.21 1141.83 388.616 1141 385.3L1140.59 383.652C1140.14 381.824 1141.24 379.975 1143.07 379.432C1144.89 379.071 1146.74 380.177 1147.19 381.994L1147.6 383.652C1147.98 385.162 1149.34 386.129 1150.9 386.129H1172.78L1184.71 393.038Z" fill="#FF0000" fill-opacity="0.4"/>
</g>
<path d="M90.4939 67.3261C81.0015 67.3261 67.6388 87.8521 67.6388 100.817C67.5336 106.655 70.7316 110.151 76.1183 110.151C81.9547 110.151 85.8177 105.952 90.4939 105.952C95.2181 105.952 99.093 110.151 104.87 110.151C110.144 110.151 113.45 106.658 113.45 100.825C113.349 87.8688 99.99 67.3261 90.4939 67.3261ZM72.8892 65.2183C71.6489 59.4269 67.8063 55.6629 64.3236 56.8339C60.8409 58.0049 59.0273 63.6458 60.268 69.4339C61.5083 75.2387 65.3509 79.0027 68.8336 77.8317C72.3163 76.6607 74.121 71.0064 72.8892 65.2183ZM83.0191 61.7388C86.7111 60.3796 88.5648 53.525 87.1452 46.1193C85.7256 38.7135 81.5839 34.2252 77.8776 35.4347C74.1856 36.7939 72.3318 43.6485 73.7515 51.0542C75.1735 58.3094 79.3116 63.1105 83.0191 61.7388ZM116.674 56.8373C113.191 55.8168 109.349 59.4302 108.108 65.2217C106.868 71.0148 108.676 76.659 112.159 77.83C115.642 78.8504 119.469 75.2371 120.725 69.4456C121.96 63.6458 120.047 58.0083 116.674 56.8373ZM97.9688 61.7388C101.569 63.098 105.817 58.3094 107.236 51.0542C108.656 43.799 106.803 36.7931 103.11 35.4347C99.5104 34.0755 95.2623 38.8641 93.8427 46.1193C92.4195 53.3745 94.2732 60.3837 97.9688 61.7388Z" fill="#FF0000" fill-opacity="0.4"/>
<defs>
<clipPath id="clip0_218_57">
<rect width="61.2245" height="54.4218" fill="white" transform="translate(283.347 309.184)"/>
</clipPath>
<clipPath id="clip1_218_57">
<rect width="61.2245" height="54.4218" fill="white" transform="translate(880.286 309.184)"/>
</clipPath>
<clipPath id="clip2_218_57">
<rect width="61.2245" height="54.4218" fill="white" transform="translate(1201.71 212.755)"/>
</clipPath>
<clipPath id="clip3_218_57">
<rect width="61.2245" height="54.4218" fill="white" transform="translate(1140.49 557.143)"/>
</clipPath>
<clipPath id="clip4_218_57">
<rect width="61.2245" height="54.4218" fill="white" transform="translate(880.286 61.2246)"/>
</clipPath>
<clipPath id="clip5_218_57">
<rect width="61.2245" height="54.4218" fill="white" transform="translate(741 641.327)"/>
</clipPath>
<clipPath id="clip6_218_57">
<rect width="61.2245" height="54.4218" fill="white" transform="translate(1155.8 982.653)"/>
</clipPath>
<clipPath id="clip7_218_57">
<rect width="61.2245" height="54.4218" fill="white" transform="translate(566.51 982.653)"/>
</clipPath>
<clipPath id="clip8_218_57">
<rect width="61.2245" height="54.4218" fill="white" transform="translate(313.959 1037.75)"/>
</clipPath>
<clipPath id="clip9_218_57">
<rect width="61.2245" height="54.4218" fill="white" transform="translate(1002.73 1037.75)"/>
</clipPath>
<clipPath id="clip10_218_57">
<rect width="61.2245" height="54.4218" fill="white" transform="translate(1002.73 404.082)"/>
</clipPath>
<clipPath id="clip11_218_57">
<rect width="61.2245" height="54.4218" fill="white" transform="translate(993.551 120.918)"/>
</clipPath>
<clipPath id="clip12_218_57">
<rect width="61.2245" height="54.4218" fill="white" transform="translate(313.959 725.51)"/>
</clipPath>
<clipPath id="clip13_218_57">
<rect width="61.2245" height="54.4218" fill="white" transform="translate(90.4898 345.918)"/>
</clipPath>
<clipPath id="clip14_218_57">
<rect width="61.2245" height="54.4218" fill="white" transform="translate(313.959 44.3877)"/>
</clipPath>
<clipPath id="clip15_218_57">
<rect width="61.2245" height="54.4218" fill="white" transform="translate(618.551 55.1021)"/>
</clipPath>
<clipPath id="clip16_218_57">
<rect width="61.2245" height="54.4218" fill="white" transform="translate(618.551 538.775)"/>
</clipPath>
<clipPath id="clip17_218_57">
<rect width="61.2245" height="54.4218" fill="white" transform="translate(546 373)"/>
</clipPath>
<clipPath id="clip18_218_57">
<rect width="61.2245" height="54.4218" fill="white" transform="translate(515 55)"/>
</clipPath>
<clipPath id="clip19_218_57">
<rect width="61.2245" height="54.4218" fill="white" transform="translate(59.8775 518.877)"/>
</clipPath>
<clipPath id="clip20_218_57">
<rect width="61.2245" height="54.4218" fill="white" transform="translate(59.8775 982.653)"/>
</clipPath>
<clipPath id="clip21_218_57">
<rect width="61.2245" height="54.4218" fill="white" transform="translate(972.122 772.959)"/>
</clipPath>
<clipPath id="clip22_218_57">
<rect width="61.2245" height="54.4218" fill="white" transform="translate(1140.49 365.816)"/>
</clipPath>
</defs>
</svg>
